<svg width="48" height="16" viewBox="0 0 48 16" fill="none" xmlns="http://www.w3.org/2000/svg">
<path d="M16.9595 6.9899V9.0101H4.83826L10.3938 14.5657L8.95947 16L0.959473 8L8.95947 0L10.3938 1.43434L4.83826 6.9899H16.9595Z" fill="#F5C518"/>
<path d="M23.0703 12V3.92H25.8951C26.458 3.92 26.9222 4.01732 27.2878 4.21195C27.6534 4.40396 27.9256 4.66303 28.1045 4.98918C28.2833 5.3127 28.3728 5.67172 28.3728 6.06625C28.3728 6.41344 28.311 6.70013 28.1873 6.92633C28.0664 7.15253 27.9059 7.33138 27.706 7.46289C27.5088 7.5944 27.2944 7.69172 27.0629 7.75484V7.83375C27.3102 7.84953 27.5587 7.93633 27.8086 8.09414C28.0585 8.25195 28.2676 8.47815 28.4359 8.77273C28.6042 9.06732 28.6884 9.42766 28.6884 9.85375C28.6884 10.2588 28.5963 10.6231 28.4122 10.9466C28.2281 11.2701 27.9375 11.5266 27.5403 11.7159C27.1432 11.9053 26.6263 12 25.9898 12H23.0703ZM24.0487 11.132H25.9898C26.6289 11.132 27.0827 11.0084 27.3509 10.7612C27.6218 10.5113 27.7573 10.2088 27.7573 9.85375C27.7573 9.58021 27.6876 9.32771 27.5482 9.09625C27.4088 8.86216 27.2102 8.67542 26.9525 8.53602C26.6947 8.39398 26.3896 8.32297 26.0371 8.32297H24.0487V11.132ZM24.0487 7.47078H25.8636C26.1581 7.47078 26.4238 7.41292 26.6605 7.29719C26.8999 7.18146 27.0892 7.01839 27.2286 6.80797C27.3707 6.59755 27.4417 6.35031 27.4417 6.06625C27.4417 5.71117 27.3181 5.41001 27.0708 5.16277C26.8236 4.9129 26.4317 4.78797 25.8951 4.78797H24.0487V7.47078ZM31.9531 12.142C31.5691 12.142 31.2206 12.0697 30.9076 11.925C30.5946 11.7777 30.3461 11.566 30.162 11.2898C29.9779 11.011 29.8858 10.6744 29.8858 10.2798C29.8858 9.93266 29.9542 9.65122 30.091 9.43555C30.2277 9.21724 30.4105 9.04628 30.6394 8.92266C30.8682 8.79904 31.1207 8.70698 31.3969 8.64648C31.6757 8.58336 31.9558 8.53339 32.2372 8.49656C32.6054 8.44922 32.904 8.41371 33.1328 8.39004C33.3643 8.36374 33.5326 8.32034 33.6378 8.25984C33.7456 8.19935 33.7996 8.09414 33.7996 7.94422V7.91266C33.7996 7.52339 33.693 7.22091 33.48 7.00523C33.2696 6.78956 32.95 6.68172 32.5213 6.68172C32.0768 6.68172 31.7283 6.77904 31.4758 6.97367C31.2233 7.16831 31.0457 7.37609 30.9431 7.59703L30.0594 7.28141C30.2172 6.91318 30.4276 6.62648 30.6906 6.42133C30.9563 6.21354 31.2456 6.06888 31.5586 5.98734C31.8742 5.90318 32.1846 5.86109 32.4897 5.86109C32.6843 5.86109 32.9079 5.88477 33.1604 5.93211C33.4155 5.97682 33.6615 6.0702 33.8982 6.21223C34.1375 6.35426 34.3361 6.56862 34.4939 6.85531C34.6517 7.14201 34.7306 7.52602 34.7306 8.00734V12H33.7996V11.1794H33.7522C33.6891 11.3109 33.5839 11.4516 33.4366 11.6015C33.2893 11.7514 33.0933 11.879 32.8487 11.9842C32.6041 12.0894 32.3056 12.142 31.9531 12.142ZM32.0952 11.3056C32.4634 11.3056 32.7738 11.2333 33.0263 11.0886C33.2814 10.944 33.4734 10.7572 33.6023 10.5284C33.7338 10.2996 33.7996 10.0589 33.7996 9.80641V8.95422C33.7601 9.00156 33.6733 9.04496 33.5392 9.08441C33.4076 9.12124 33.2551 9.15411 33.0815 9.18305C32.9105 9.20935 32.7435 9.23302 32.5804 9.25406C32.42 9.27247 32.2898 9.28826 32.1899 9.30141C31.9479 9.33297 31.7217 9.38426 31.5113 9.45527C31.3035 9.52366 31.1351 9.62755 31.0063 9.76695C30.88 9.90372 30.8169 10.0905 30.8169 10.3272C30.8169 10.6507 30.9366 10.8953 31.1759 11.061C31.4179 11.2241 31.7243 11.3056 32.0952 11.3056ZM38.892 12.1262C38.3238 12.1262 37.8346 11.9921 37.4243 11.7238C37.014 11.4555 36.6984 11.086 36.4774 10.6152C36.2565 10.1444 36.146 9.60651 36.146 9.00156C36.146 8.38609 36.2591 7.84296 36.4853 7.37215C36.7141 6.89871 37.0324 6.52917 37.4401 6.26352C37.8504 5.99523 38.3291 5.86109 38.8762 5.86109C39.3023 5.86109 39.6863 5.94 40.0282 6.09781C40.3701 6.25563 40.6503 6.47656 40.8686 6.76062C41.0869 7.04469 41.2223 7.37609 41.2749 7.75484H40.3438C40.2728 7.47867 40.115 7.23406 39.8704 7.02102C39.6284 6.80534 39.3023 6.6975 38.892 6.6975C38.529 6.6975 38.2107 6.79219 37.9372 6.98156C37.6663 7.16831 37.4546 7.43264 37.302 7.77457C37.1521 8.11387 37.0771 8.51234 37.0771 8.97C37.0771 9.43818 37.1508 9.84586 37.2981 10.193C37.448 10.5402 37.6584 10.8098 37.9293 11.0018C38.2028 11.1938 38.5237 11.2898 38.892 11.2898C39.1339 11.2898 39.3536 11.2478 39.5508 11.1636C39.7481 11.0794 39.9151 10.9584 40.0519 10.8006C40.1887 10.6428 40.286 10.4534 40.3438 10.2325H41.2749C41.2223 10.5902 41.0921 10.9124 40.8843 11.1991C40.6792 11.4832 40.407 11.7094 40.0677 11.8777C39.731 12.0434 39.3391 12.1262 38.892 12.1262ZM43.504 9.79063L43.4882 8.63859H43.6776L46.3289 5.94H47.4809L44.6561 8.79641H44.5772L43.504 9.79063ZM42.6361 12V3.92H43.5672V12H42.6361ZM46.4867 12L44.1195 9.00156L44.7823 8.35453L47.6703 12H46.4867Z" fill="white"/>
</svg>
