<svg width="132" height="132" viewBox="0 0 132 132" fill="none" xmlns="http://www.w3.org/2000/svg">
<circle cx="66" cy="66" r="65.5" fill="black" stroke="#F5C518"/>
<path d="M46.4352 60V43.2436H52.8498C54.0607 43.2436 55.067 43.4345 55.8689 43.8164C56.6761 44.1927 57.2789 44.7082 57.677 45.3627C58.0807 46.0173 58.2825 46.7591 58.2825 47.5882C58.2825 48.27 58.1516 48.8536 57.8898 49.3391C57.628 49.8191 57.2761 50.2091 56.8343 50.5091C56.3925 50.8091 55.8989 51.0245 55.3534 51.1555V51.3191C55.948 51.3518 56.518 51.5345 57.0634 51.8673C57.6143 52.1945 58.0643 52.6582 58.4134 53.2582C58.7625 53.8582 58.937 54.5836 58.937 55.4345C58.937 56.3018 58.727 57.0818 58.307 57.7745C57.887 58.4618 57.2543 59.0045 56.4089 59.4027C55.5634 59.8009 54.4998 60 53.218 60H46.4352ZM49.4707 57.4636H52.7352C53.837 57.4636 54.6307 57.2536 55.1161 56.8336C55.607 56.4082 55.8525 55.8627 55.8525 55.1973C55.8525 54.7009 55.7298 54.2536 55.4843 53.8555C55.2389 53.4518 54.8898 53.1355 54.437 52.9064C53.9843 52.6718 53.4443 52.5545 52.817 52.5545H49.4707V57.4636ZM49.4707 50.37H52.4734C52.997 50.37 53.4689 50.2745 53.8889 50.0836C54.3089 49.8873 54.6389 49.6118 54.8789 49.2573C55.1243 48.8973 55.247 48.4718 55.247 47.9809C55.247 47.3318 55.018 46.7973 54.5598 46.3773C54.107 45.9573 53.4334 45.7473 52.5389 45.7473H49.4707V50.37ZM69.4568 54.7145V47.4327H72.4186V60H69.5468V57.7664H69.4159C69.1323 58.47 68.6659 59.0455 68.0168 59.4927C67.3732 59.94 66.5795 60.1636 65.6359 60.1636C64.8123 60.1636 64.0841 59.9809 63.4514 59.6155C62.8241 59.2445 62.3332 58.7073 61.9786 58.0036C61.6241 57.2945 61.4468 56.4382 61.4468 55.4345V47.4327H64.4086V54.9764C64.4086 55.7727 64.6268 56.4055 65.0632 56.8745C65.4995 57.3436 66.0723 57.5782 66.7814 57.5782C67.2177 57.5782 67.6405 57.4718 68.0495 57.2591C68.4586 57.0464 68.7941 56.73 69.0559 56.31C69.3232 55.8845 69.4568 55.3527 69.4568 54.7145ZM77.3052 64.7127C76.9016 64.7127 76.528 64.68 76.1843 64.6145C75.8461 64.5545 75.5761 64.4836 75.3743 64.4018L76.0616 62.0945C76.4925 62.22 76.877 62.28 77.2152 62.2745C77.5534 62.2691 77.8507 62.1627 78.107 61.9555C78.3689 61.7536 78.5898 61.4155 78.7698 60.9409L79.0234 60.2618L74.4661 47.4327H77.608L80.5043 56.9236H80.6352L83.5398 47.4327H86.6898L81.658 61.5218C81.4234 62.1873 81.1125 62.7573 80.7252 63.2318C80.338 63.7118 79.8634 64.0773 79.3016 64.3282C78.7452 64.5845 78.0798 64.7127 77.3052 64.7127ZM40.0769 76.5945C39.9406 76.1527 39.7524 75.7573 39.5124 75.4082C39.2778 75.0536 38.9942 74.7509 38.6615 74.5C38.3342 74.2491 37.9578 74.0609 37.5324 73.9355C37.1069 73.8045 36.6433 73.7391 36.1415 73.7391C35.2415 73.7391 34.4397 73.9655 33.736 74.4182C33.0324 74.8709 32.4787 75.5364 32.0751 76.4145C31.6769 77.2873 31.4778 78.3509 31.4778 79.6055C31.4778 80.8709 31.6769 81.9427 32.0751 82.8209C32.4733 83.6991 33.0269 84.3673 33.736 84.8255C34.4451 85.2782 35.2688 85.5045 36.2069 85.5045C37.0578 85.5045 37.7942 85.3409 38.416 85.0136C39.0433 84.6864 39.526 84.2227 39.8642 83.6227C40.2024 83.0173 40.3715 82.3082 40.3715 81.4955L41.0588 81.6018H36.5097V79.2291H43.3088V81.2418C43.3088 82.6764 43.0033 83.9173 42.3924 84.9645C41.7815 86.0118 40.9415 86.8191 39.8724 87.3864C38.8033 87.9482 37.576 88.2291 36.1906 88.2291C34.6469 88.2291 33.2915 87.8827 32.1242 87.19C30.9624 86.4918 30.0542 85.5018 29.3997 84.22C28.7506 82.9327 28.426 81.4055 28.426 79.6382C28.426 78.2855 28.6169 77.0773 28.9987 76.0136C29.386 74.95 29.926 74.0473 30.6187 73.3055C31.3115 72.5582 32.1242 71.9909 33.0569 71.6036C33.9897 71.2109 35.0042 71.0145 36.1006 71.0145C37.0278 71.0145 37.8924 71.1509 38.6942 71.4236C39.496 71.6909 40.2078 72.0727 40.8297 72.5691C41.4569 73.0655 41.9724 73.6545 42.376 74.3364C42.7797 75.0182 43.0442 75.7709 43.1697 76.5945H40.0769ZM49.7294 88.2536C48.9331 88.2536 48.2158 88.1118 47.5776 87.8282C46.9449 87.5391 46.4431 87.1136 46.0722 86.5518C45.7067 85.99 45.524 85.2973 45.524 84.4736C45.524 83.7645 45.6549 83.1782 45.9167 82.7145C46.1785 82.2509 46.5358 81.88 46.9885 81.6018C47.4412 81.3236 47.9512 81.1136 48.5185 80.9718C49.0912 80.8245 49.6831 80.7182 50.294 80.6527C51.0303 80.5764 51.6276 80.5082 52.0858 80.4482C52.544 80.3827 52.8767 80.2845 53.084 80.1536C53.2967 80.0173 53.4031 79.8073 53.4031 79.5236V79.4745C53.4031 78.8582 53.2203 78.3809 52.8549 78.0427C52.4894 77.7045 51.9631 77.5355 51.2758 77.5355C50.5503 77.5355 49.9749 77.6936 49.5494 78.01C49.1294 78.3264 48.8458 78.7 48.6985 79.1309L45.9331 78.7382C46.1512 77.9745 46.5112 77.3364 47.0131 76.8236C47.5149 76.3055 48.1285 75.9182 48.854 75.6618C49.5794 75.4 50.3812 75.2691 51.2594 75.2691C51.8649 75.2691 52.4676 75.34 53.0676 75.4818C53.6676 75.6236 54.2158 75.8582 54.7122 76.1855C55.2085 76.5073 55.6067 76.9464 55.9067 77.5027C56.2122 78.0591 56.3649 78.7545 56.3649 79.5891V88H53.5176V86.2736H53.4194C53.2394 86.6227 52.9858 86.95 52.6585 87.2555C52.3367 87.5555 51.9303 87.7982 51.4394 87.9836C50.954 88.1636 50.384 88.2536 49.7294 88.2536ZM50.4985 86.0773C51.0931 86.0773 51.6085 85.96 52.0449 85.7255C52.4813 85.4855 52.8167 85.1691 53.0512 84.7764C53.2912 84.3836 53.4112 83.9555 53.4112 83.4918V82.0109C53.3185 82.0873 53.1603 82.1582 52.9367 82.2236C52.7185 82.2891 52.4731 82.3464 52.2003 82.3955C51.9276 82.4445 51.6576 82.4882 51.3903 82.5264C51.1231 82.5645 50.8912 82.5973 50.6949 82.6245C50.2531 82.6845 49.8576 82.7827 49.5085 82.9191C49.1594 83.0555 48.884 83.2464 48.6822 83.4918C48.4803 83.7318 48.3794 84.0427 48.3794 84.4245C48.3794 84.97 48.5785 85.3818 48.9767 85.66C49.3749 85.9382 49.8822 86.0773 50.4985 86.0773ZM59.3431 88V75.4327H62.174V77.5682H62.3213C62.5831 76.8482 63.0167 76.2864 63.6222 75.8827C64.2276 75.4736 64.9503 75.2691 65.7903 75.2691C66.6413 75.2691 67.3585 75.4764 67.9422 75.8909C68.5313 76.3 68.9458 76.8591 69.1858 77.5682H69.3167C69.5949 76.87 70.064 76.3136 70.724 75.8991C71.3894 75.4791 72.1776 75.2691 73.0885 75.2691C74.2449 75.2691 75.1885 75.6345 75.9194 76.3655C76.6503 77.0964 77.0158 78.1627 77.0158 79.5645V88H74.0458V80.0227C74.0458 79.2427 73.8385 78.6727 73.424 78.3127C73.0094 77.9473 72.5022 77.7645 71.9022 77.7645C71.1876 77.7645 70.6285 77.9882 70.2249 78.4355C69.8267 78.8773 69.6276 79.4527 69.6276 80.1618V88H66.7231V79.9C66.7231 79.2509 66.5267 78.7327 66.134 78.3455C65.7467 77.9582 65.2394 77.7645 64.6122 77.7645C64.1867 77.7645 63.7994 77.8736 63.4503 78.0918C63.1013 78.3045 62.8231 78.6073 62.6158 79C62.4085 79.3873 62.3049 79.84 62.3049 80.3582V88H59.3431ZM85.5842 88.2455C84.3242 88.2455 83.236 87.9836 82.3197 87.46C81.4088 86.9309 80.7078 86.1836 80.2169 85.2182C79.726 84.2473 79.4806 83.1045 79.4806 81.79C79.4806 80.4973 79.726 79.3627 80.2169 78.3864C80.7133 77.4045 81.406 76.6409 82.2951 76.0955C83.1842 75.5445 84.2288 75.2691 85.4288 75.2691C86.2033 75.2691 86.9342 75.3945 87.6215 75.6455C88.3142 75.8909 88.9251 76.2727 89.4542 76.7909C89.9888 77.3091 90.4088 77.9691 90.7142 78.7709C91.0197 79.5673 91.1724 80.5164 91.1724 81.6182V82.5264H80.8715V80.53H88.3333C88.3278 79.9627 88.2051 79.4582 87.9651 79.0164C87.7251 78.5691 87.3897 78.2173 86.9588 77.9609C86.5333 77.7045 86.0369 77.5764 85.4697 77.5764C84.8642 77.5764 84.3324 77.7236 83.8742 78.0182C83.416 78.3073 83.0588 78.6891 82.8024 79.1636C82.5515 79.6327 82.4233 80.1482 82.4178 80.71V82.4527C82.4178 83.1836 82.5515 83.8109 82.8188 84.3345C83.086 84.8527 83.4597 85.2509 83.9397 85.5291C84.4197 85.8018 84.9815 85.9382 85.6251 85.9382C86.056 85.9382 86.446 85.8782 86.7951 85.7582C87.1442 85.6327 87.4469 85.45 87.7033 85.21C87.9597 84.97 88.1533 84.6727 88.2842 84.3182L91.0497 84.6291C90.8751 85.36 90.5424 85.9982 90.0515 86.5436C89.566 87.0836 88.9442 87.5036 88.186 87.8036C87.4278 88.0982 86.5606 88.2455 85.5842 88.2455ZM103.611 78.7545L100.911 79.0491C100.834 78.7764 100.701 78.52 100.51 78.28C100.324 78.04 100.074 77.8464 99.7572 77.6991C99.4408 77.5518 99.0535 77.4782 98.5953 77.4782C97.979 77.4782 97.4608 77.6118 97.0408 77.8791C96.6263 78.1464 96.4217 78.4927 96.4272 78.9182C96.4217 79.2836 96.5553 79.5809 96.8281 79.81C97.1063 80.0391 97.5644 80.2273 98.2026 80.3745L100.346 80.8327C101.535 81.0891 102.419 81.4955 102.997 82.0518C103.581 82.6082 103.875 83.3364 103.881 84.2364C103.875 85.0273 103.644 85.7255 103.185 86.3309C102.733 86.9309 102.103 87.4 101.295 87.7382C100.488 88.0764 99.5608 88.2455 98.5135 88.2455C96.9753 88.2455 95.7372 87.9236 94.799 87.28C93.8608 86.6309 93.3017 85.7282 93.1217 84.5718L96.0099 84.2936C96.1408 84.8609 96.419 85.2891 96.8444 85.5782C97.2699 85.8673 97.8235 86.0118 98.5053 86.0118C99.209 86.0118 99.7735 85.8673 100.199 85.5782C100.63 85.2891 100.845 84.9318 100.845 84.5064C100.845 84.1464 100.706 83.8491 100.428 83.6145C100.155 83.38 99.7299 83.2 99.1517 83.0745L97.0081 82.6245C95.8026 82.3736 94.9108 81.9509 94.3326 81.3564C93.7544 80.7564 93.4681 79.9982 93.4735 79.0818C93.4681 78.3073 93.6781 77.6364 94.1035 77.0691C94.5344 76.4964 95.1317 76.0545 95.8953 75.7436C96.6644 75.4273 97.5508 75.2691 98.5544 75.2691C100.027 75.2691 101.186 75.5827 102.032 76.21C102.883 76.8373 103.409 77.6855 103.611 78.7545Z" fill="#F5C518"/>
</svg>
