<svg width="132" height="132" viewBox="0 0 132 132" fill="none" xmlns="http://www.w3.org/2000/svg">
<circle cx="66" cy="66" r="65.5" fill="black" stroke="#F5C518"/>
<path d="M56.4416 47.85C56.3652 47.1355 56.0434 46.5791 55.4761 46.1809C54.9143 45.7827 54.1834 45.5836 53.2834 45.5836C52.6507 45.5836 52.108 45.6791 51.6552 45.87C51.2025 46.0609 50.8561 46.32 50.6161 46.6473C50.3761 46.9745 50.2534 47.3482 50.248 47.7682C50.248 48.1173 50.327 48.42 50.4852 48.6764C50.6489 48.9327 50.8698 49.1509 51.148 49.3309C51.4261 49.5055 51.7343 49.6527 52.0725 49.7727C52.4107 49.8927 52.7516 49.9936 53.0952 50.0755L54.6661 50.4682C55.2989 50.6155 55.907 50.8145 56.4907 51.0655C57.0798 51.3164 57.6061 51.6327 58.0698 52.0145C58.5389 52.3964 58.9098 52.8573 59.1825 53.3973C59.4552 53.9373 59.5916 54.57 59.5916 55.2955C59.5916 56.2773 59.3407 57.1418 58.8389 57.8891C58.337 58.6309 57.6116 59.2118 56.6625 59.6318C55.7189 60.0464 54.5761 60.2536 53.2343 60.2536C51.9307 60.2536 50.7989 60.0518 49.8389 59.6482C48.8843 59.2445 48.137 58.6555 47.597 57.8809C47.0625 57.1064 46.7734 56.1627 46.7298 55.05H49.7161C49.7598 55.6336 49.9398 56.1191 50.2561 56.5064C50.5725 56.8936 50.9843 57.1827 51.4916 57.3736C52.0043 57.5645 52.577 57.66 53.2098 57.66C53.8698 57.66 54.448 57.5618 54.9443 57.3655C55.4461 57.1636 55.8389 56.8855 56.1225 56.5309C56.4061 56.1709 56.5507 55.7509 56.5561 55.2709C56.5507 54.8345 56.4225 54.4745 56.1716 54.1909C55.9207 53.9018 55.5689 53.6618 55.1161 53.4709C54.6689 53.2745 54.1452 53.1 53.5452 52.9473L51.6389 52.4564C50.2589 52.1018 49.168 51.5645 48.3661 50.8445C47.5698 50.1191 47.1716 49.1564 47.1716 47.9564C47.1716 46.9691 47.4389 46.1045 47.9734 45.3627C48.5134 44.6209 49.247 44.0455 50.1743 43.6364C51.1016 43.2218 52.1516 43.0145 53.3243 43.0145C54.5134 43.0145 55.5552 43.2218 56.4498 43.6364C57.3498 44.0455 58.0561 44.6155 58.5689 45.3464C59.0816 46.0718 59.3461 46.9064 59.3625 47.85H56.4416ZM67.7305 60.2455C66.4705 60.2455 65.3823 59.9836 64.4659 59.46C63.555 58.9309 62.8541 58.1836 62.3632 57.2182C61.8723 56.2473 61.6268 55.1045 61.6268 53.79C61.6268 52.4973 61.8723 51.3627 62.3632 50.3864C62.8595 49.4045 63.5523 48.6409 64.4414 48.0955C65.3305 47.5445 66.375 47.2691 67.575 47.2691C68.3495 47.2691 69.0805 47.3945 69.7677 47.6455C70.4605 47.8909 71.0714 48.2727 71.6005 48.7909C72.135 49.3091 72.555 49.9691 72.8605 50.7709C73.1659 51.5673 73.3186 52.5164 73.3186 53.6182V54.5264H63.0177V52.53H70.4795C70.4741 51.9627 70.3514 51.4582 70.1114 51.0164C69.8714 50.5691 69.5359 50.2173 69.105 49.9609C68.6795 49.7045 68.1832 49.5764 67.6159 49.5764C67.0105 49.5764 66.4786 49.7236 66.0205 50.0182C65.5623 50.3073 65.205 50.6891 64.9486 51.1636C64.6977 51.6327 64.5695 52.1482 64.5641 52.71V54.4527C64.5641 55.1836 64.6977 55.8109 64.965 56.3345C65.2323 56.8527 65.6059 57.2509 66.0859 57.5291C66.5659 57.8018 67.1277 57.9382 67.7714 57.9382C68.2023 57.9382 68.5923 57.8782 68.9414 57.7582C69.2905 57.6327 69.5932 57.45 69.8495 57.21C70.1059 56.97 70.2995 56.6727 70.4305 56.3182L73.1959 56.6291C73.0214 57.36 72.6886 57.9982 72.1977 58.5436C71.7123 59.0836 71.0905 59.5036 70.3323 59.8036C69.5741 60.0982 68.7068 60.2455 67.7305 60.2455ZM78.7861 43.2436V60H75.8243V43.2436H78.7861ZM84.7936 43.2436V60H81.8318V43.2436H84.7936ZM40.0769 76.5945C39.9406 76.1527 39.7524 75.7573 39.5124 75.4082C39.2778 75.0536 38.9942 74.7509 38.6615 74.5C38.3342 74.2491 37.9578 74.0609 37.5324 73.9355C37.1069 73.8045 36.6433 73.7391 36.1415 73.7391C35.2415 73.7391 34.4397 73.9655 33.736 74.4182C33.0324 74.8709 32.4787 75.5364 32.0751 76.4145C31.6769 77.2873 31.4778 78.3509 31.4778 79.6055C31.4778 80.8709 31.6769 81.9427 32.0751 82.8209C32.4733 83.6991 33.0269 84.3673 33.736 84.8255C34.4451 85.2782 35.2688 85.5045 36.2069 85.5045C37.0578 85.5045 37.7942 85.3409 38.416 85.0136C39.0433 84.6864 39.526 84.2227 39.8642 83.6227C40.2024 83.0173 40.3715 82.3082 40.3715 81.4955L41.0588 81.6018H36.5097V79.2291H43.3088V81.2418C43.3088 82.6764 43.0033 83.9173 42.3924 84.9645C41.7815 86.0118 40.9415 86.8191 39.8724 87.3864C38.8033 87.9482 37.576 88.2291 36.1906 88.2291C34.6469 88.2291 33.2915 87.8827 32.1242 87.19C30.9624 86.4918 30.0542 85.5018 29.3997 84.22C28.7506 82.9327 28.426 81.4055 28.426 79.6382C28.426 78.2855 28.6169 77.0773 28.9987 76.0136C29.386 74.95 29.926 74.0473 30.6187 73.3055C31.3115 72.5582 32.1242 71.9909 33.0569 71.6036C33.9897 71.2109 35.0042 71.0145 36.1006 71.0145C37.0278 71.0145 37.8924 71.1509 38.6942 71.4236C39.496 71.6909 40.2078 72.0727 40.8297 72.5691C41.4569 73.0655 41.9724 73.6545 42.376 74.3364C42.7797 75.0182 43.0442 75.7709 43.1697 76.5945H40.0769ZM49.7294 88.2536C48.9331 88.2536 48.2158 88.1118 47.5776 87.8282C46.9449 87.5391 46.4431 87.1136 46.0722 86.5518C45.7067 85.99 45.524 85.2973 45.524 84.4736C45.524 83.7645 45.6549 83.1782 45.9167 82.7145C46.1785 82.2509 46.5358 81.88 46.9885 81.6018C47.4412 81.3236 47.9512 81.1136 48.5185 80.9718C49.0912 80.8245 49.6831 80.7182 50.294 80.6527C51.0303 80.5764 51.6276 80.5082 52.0858 80.4482C52.544 80.3827 52.8767 80.2845 53.084 80.1536C53.2967 80.0173 53.4031 79.8073 53.4031 79.5236V79.4745C53.4031 78.8582 53.2203 78.3809 52.8549 78.0427C52.4894 77.7045 51.9631 77.5355 51.2758 77.5355C50.5503 77.5355 49.9749 77.6936 49.5494 78.01C49.1294 78.3264 48.8458 78.7 48.6985 79.1309L45.9331 78.7382C46.1512 77.9745 46.5112 77.3364 47.0131 76.8236C47.5149 76.3055 48.1285 75.9182 48.854 75.6618C49.5794 75.4 50.3812 75.2691 51.2594 75.2691C51.8649 75.2691 52.4676 75.34 53.0676 75.4818C53.6676 75.6236 54.2158 75.8582 54.7122 76.1855C55.2085 76.5073 55.6067 76.9464 55.9067 77.5027C56.2122 78.0591 56.3649 78.7545 56.3649 79.5891V88H53.5176V86.2736H53.4194C53.2394 86.6227 52.9858 86.95 52.6585 87.2555C52.3367 87.5555 51.9303 87.7982 51.4394 87.9836C50.954 88.1636 50.384 88.2536 49.7294 88.2536ZM50.4985 86.0773C51.0931 86.0773 51.6085 85.96 52.0449 85.7255C52.4813 85.4855 52.8167 85.1691 53.0512 84.7764C53.2912 84.3836 53.4112 83.9555 53.4112 83.4918V82.0109C53.3185 82.0873 53.1603 82.1582 52.9367 82.2236C52.7185 82.2891 52.4731 82.3464 52.2003 82.3955C51.9276 82.4445 51.6576 82.4882 51.3903 82.5264C51.1231 82.5645 50.8912 82.5973 50.6949 82.6245C50.2531 82.6845 49.8576 82.7827 49.5085 82.9191C49.1594 83.0555 48.884 83.2464 48.6822 83.4918C48.4803 83.7318 48.3794 84.0427 48.3794 84.4245C48.3794 84.97 48.5785 85.3818 48.9767 85.66C49.3749 85.9382 49.8822 86.0773 50.4985 86.0773ZM59.3431 88V75.4327H62.174V77.5682H62.3213C62.5831 76.8482 63.0167 76.2864 63.6222 75.8827C64.2276 75.4736 64.9503 75.2691 65.7903 75.2691C66.6413 75.2691 67.3585 75.4764 67.9422 75.8909C68.5313 76.3 68.9458 76.8591 69.1858 77.5682H69.3167C69.5949 76.87 70.064 76.3136 70.724 75.8991C71.3894 75.4791 72.1776 75.2691 73.0885 75.2691C74.2449 75.2691 75.1885 75.6345 75.9194 76.3655C76.6503 77.0964 77.0158 78.1627 77.0158 79.5645V88H74.0458V80.0227C74.0458 79.2427 73.8385 78.6727 73.424 78.3127C73.0094 77.9473 72.5022 77.7645 71.9022 77.7645C71.1876 77.7645 70.6285 77.9882 70.2249 78.4355C69.8267 78.8773 69.6276 79.4527 69.6276 80.1618V88H66.7231V79.9C66.7231 79.2509 66.5267 78.7327 66.134 78.3455C65.7467 77.9582 65.2394 77.7645 64.6122 77.7645C64.1867 77.7645 63.7994 77.8736 63.4503 78.0918C63.1013 78.3045 62.8231 78.6073 62.6158 79C62.4085 79.3873 62.3049 79.84 62.3049 80.3582V88H59.3431ZM85.5842 88.2455C84.3242 88.2455 83.236 87.9836 82.3197 87.46C81.4088 86.9309 80.7078 86.1836 80.2169 85.2182C79.726 84.2473 79.4806 83.1045 79.4806 81.79C79.4806 80.4973 79.726 79.3627 80.2169 78.3864C80.7133 77.4045 81.406 76.6409 82.2951 76.0955C83.1842 75.5445 84.2288 75.2691 85.4288 75.2691C86.2033 75.2691 86.9342 75.3945 87.6215 75.6455C88.3142 75.8909 88.9251 76.2727 89.4542 76.7909C89.9888 77.3091 90.4088 77.9691 90.7142 78.7709C91.0197 79.5673 91.1724 80.5164 91.1724 81.6182V82.5264H80.8715V80.53H88.3333C88.3278 79.9627 88.2051 79.4582 87.9651 79.0164C87.7251 78.5691 87.3897 78.2173 86.9588 77.9609C86.5333 77.7045 86.0369 77.5764 85.4697 77.5764C84.8642 77.5764 84.3324 77.7236 83.8742 78.0182C83.416 78.3073 83.0588 78.6891 82.8024 79.1636C82.5515 79.6327 82.4233 80.1482 82.4178 80.71V82.4527C82.4178 83.1836 82.5515 83.8109 82.8188 84.3345C83.086 84.8527 83.4597 85.2509 83.9397 85.5291C84.4197 85.8018 84.9815 85.9382 85.6251 85.9382C86.056 85.9382 86.446 85.8782 86.7951 85.7582C87.1442 85.6327 87.4469 85.45 87.7033 85.21C87.9597 84.97 88.1533 84.6727 88.2842 84.3182L91.0497 84.6291C90.8751 85.36 90.5424 85.9982 90.0515 86.5436C89.566 87.0836 88.9442 87.5036 88.186 87.8036C87.4278 88.0982 86.5606 88.2455 85.5842 88.2455ZM103.611 78.7545L100.911 79.0491C100.834 78.7764 100.701 78.52 100.51 78.28C100.324 78.04 100.074 77.8464 99.7572 77.6991C99.4408 77.5518 99.0535 77.4782 98.5953 77.4782C97.979 77.4782 97.4608 77.6118 97.0408 77.8791C96.6263 78.1464 96.4217 78.4927 96.4272 78.9182C96.4217 79.2836 96.5553 79.5809 96.8281 79.81C97.1063 80.0391 97.5644 80.2273 98.2026 80.3745L100.346 80.8327C101.535 81.0891 102.419 81.4955 102.997 82.0518C103.581 82.6082 103.875 83.3364 103.881 84.2364C103.875 85.0273 103.644 85.7255 103.185 86.3309C102.733 86.9309 102.103 87.4 101.295 87.7382C100.488 88.0764 99.5608 88.2455 98.5135 88.2455C96.9753 88.2455 95.7372 87.9236 94.799 87.28C93.8608 86.6309 93.3017 85.7282 93.1217 84.5718L96.0099 84.2936C96.1408 84.8609 96.419 85.2891 96.8444 85.5782C97.2699 85.8673 97.8235 86.0118 98.5053 86.0118C99.209 86.0118 99.7735 85.8673 100.199 85.5782C100.63 85.2891 100.845 84.9318 100.845 84.5064C100.845 84.1464 100.706 83.8491 100.428 83.6145C100.155 83.38 99.7299 83.2 99.1517 83.0745L97.0081 82.6245C95.8026 82.3736 94.9108 81.9509 94.3326 81.3564C93.7544 80.7564 93.4681 79.9982 93.4735 79.0818C93.4681 78.3073 93.6781 77.6364 94.1035 77.0691C94.5344 76.4964 95.1317 76.0545 95.8953 75.7436C96.6644 75.4273 97.5508 75.2691 98.5544 75.2691C100.027 75.2691 101.186 75.5827 102.032 76.21C102.883 76.8373 103.409 77.6855 103.611 78.7545Z" fill="#F5C518"/>
</svg>
