<svg width="75" height="24" viewBox="0 0 75 24" fill="none" xmlns="http://www.w3.org/2000/svg">
<path d="M10.9446 10H9.53551C9.45218 9.5947 9.30635 9.23864 9.09801 8.93182C8.89347 8.625 8.64347 8.36742 8.34801 8.15909C8.05634 7.94697 7.73248 7.78788 7.37642 7.68182C7.02036 7.57576 6.64915 7.52273 6.26278 7.52273C5.55824 7.52273 4.91998 7.70076 4.34801 8.05682C3.77983 8.41288 3.32718 8.9375 2.99006 9.63068C2.65672 10.3239 2.49006 11.1742 2.49006 12.1818C2.49006 13.1894 2.65672 14.0398 2.99006 14.733C3.32718 15.4261 3.77983 15.9508 4.34801 16.3068C4.91998 16.6629 5.55824 16.8409 6.26278 16.8409C6.64915 16.8409 7.02036 16.7879 7.37642 16.6818C7.73248 16.5758 8.05634 16.4186 8.34801 16.2102C8.64347 15.9981 8.89347 15.7386 9.09801 15.4318C9.30635 15.1212 9.45218 14.7652 9.53551 14.3636H10.9446C10.8385 14.9583 10.6454 15.4905 10.3651 15.9602C10.0848 16.4299 9.73627 16.8295 9.3196 17.1591C8.90294 17.4848 8.43513 17.733 7.91619 17.9034C7.40104 18.0739 6.84991 18.1591 6.26278 18.1591C5.27036 18.1591 4.38778 17.9167 3.61506 17.4318C2.84233 16.947 2.23438 16.2576 1.79119 15.3636C1.34801 14.4697 1.12642 13.4091 1.12642 12.1818C1.12642 10.9545 1.34801 9.89394 1.79119 9C2.23438 8.10606 2.84233 7.41667 3.61506 6.93182C4.38778 6.44697 5.27036 6.20455 6.26278 6.20455C6.84991 6.20455 7.40104 6.28977 7.91619 6.46023C8.43513 6.63068 8.90294 6.88068 9.3196 7.21023C9.73627 7.53598 10.0848 7.93371 10.3651 8.40341C10.6454 8.86932 10.8385 9.40151 10.9446 10ZM14.3807 6.36364V18H13.0398V6.36364H14.3807ZM20.3821 18.1818C19.5942 18.1818 18.9029 17.9943 18.3082 17.6193C17.7173 17.2443 17.2552 16.7197 16.9219 16.0455C16.5923 15.3712 16.4276 14.5833 16.4276 13.6818C16.4276 12.7727 16.5923 11.9792 16.9219 11.3011C17.2552 10.6231 17.7173 10.0966 18.3082 9.72159C18.9029 9.34659 19.5942 9.15909 20.3821 9.15909C21.17 9.15909 21.8594 9.34659 22.4503 9.72159C23.045 10.0966 23.5071 10.6231 23.8366 11.3011C24.17 11.9792 24.3366 12.7727 24.3366 13.6818C24.3366 14.5833 24.17 15.3712 23.8366 16.0455C23.5071 16.7197 23.045 17.2443 22.4503 17.6193C21.8594 17.9943 21.17 18.1818 20.3821 18.1818ZM20.3821 16.9773C20.9806 16.9773 21.473 16.8239 21.8594 16.517C22.2457 16.2102 22.5317 15.8068 22.7173 15.3068C22.9029 14.8068 22.9957 14.2652 22.9957 13.6818C22.9957 13.0985 22.9029 12.5549 22.7173 12.0511C22.5317 11.5473 22.2457 11.1402 21.8594 10.8295C21.473 10.5189 20.9806 10.3636 20.3821 10.3636C19.7836 10.3636 19.2912 10.5189 18.9048 10.8295C18.5185 11.1402 18.2325 11.5473 18.0469 12.0511C17.8613 12.5549 17.7685 13.0985 17.7685 13.6818C17.7685 14.2652 17.8613 14.8068 18.0469 15.3068C18.2325 15.8068 18.5185 16.2102 18.9048 16.517C19.2912 16.8239 19.7836 16.9773 20.3821 16.9773ZM32.5653 11.2273L31.3608 11.5682C31.285 11.3674 31.1733 11.1723 31.0256 10.983C30.8816 10.7898 30.6847 10.6307 30.4347 10.5057C30.1847 10.3807 29.8646 10.3182 29.4744 10.3182C28.9403 10.3182 28.4953 10.4413 28.1392 10.6875C27.7869 10.9299 27.6108 11.2386 27.6108 11.6136C27.6108 11.947 27.732 12.2102 27.9744 12.4034C28.2169 12.5966 28.5956 12.7576 29.1108 12.8864L30.4062 13.2045C31.1866 13.3939 31.768 13.6837 32.1506 14.0739C32.5331 14.4602 32.7244 14.9583 32.7244 15.5682C32.7244 16.0682 32.5805 16.5152 32.2926 16.9091C32.0085 17.303 31.6108 17.6136 31.0994 17.8409C30.5881 18.0682 29.9934 18.1818 29.3153 18.1818C28.4252 18.1818 27.6884 17.9886 27.1051 17.6023C26.5218 17.2159 26.1525 16.6515 25.9972 15.9091L27.2699 15.5909C27.3911 16.0606 27.6203 16.4129 27.9574 16.6477C28.2983 16.8826 28.7434 17 29.2926 17C29.9176 17 30.4138 16.8674 30.7812 16.6023C31.1525 16.3333 31.3381 16.0114 31.3381 15.6364C31.3381 15.3333 31.232 15.0795 31.0199 14.875C30.8078 14.6667 30.482 14.5114 30.0426 14.4091L28.5881 14.0682C27.7888 13.8788 27.2017 13.5852 26.8267 13.1875C26.4555 12.786 26.2699 12.2841 26.2699 11.6818C26.2699 11.1894 26.4081 10.7538 26.6847 10.375C26.965 9.99621 27.3456 9.69886 27.8267 9.48295C28.3116 9.26705 28.8608 9.15909 29.4744 9.15909C30.3381 9.15909 31.0161 9.34848 31.5085 9.72727C32.0047 10.1061 32.357 10.6061 32.5653 11.2273ZM38.402 18.1818C37.5611 18.1818 36.8357 17.9962 36.2259 17.625C35.6198 17.25 35.152 16.7273 34.8224 16.0568C34.4967 15.3826 34.3338 14.5985 34.3338 13.7045C34.3338 12.8106 34.4967 12.0227 34.8224 11.3409C35.152 10.6553 35.6103 10.1212 36.1974 9.73864C36.7884 9.35227 37.4777 9.15909 38.2656 9.15909C38.7202 9.15909 39.169 9.23485 39.6122 9.38636C40.0554 9.53788 40.4588 9.78409 40.8224 10.125C41.1861 10.4621 41.4759 10.9091 41.6918 11.4659C41.9077 12.0227 42.0156 12.7083 42.0156 13.5227V14.0909H35.2884V12.9318H40.652C40.652 12.4394 40.5535 12 40.3565 11.6136C40.1634 11.2273 39.8868 10.9223 39.527 10.6989C39.1709 10.4754 38.7505 10.3636 38.2656 10.3636C37.7315 10.3636 37.2694 10.4962 36.8793 10.7614C36.4929 11.0227 36.1955 11.3636 35.9872 11.7841C35.7789 12.2045 35.6747 12.6553 35.6747 13.1364V13.9091C35.6747 14.5682 35.7884 15.1269 36.0156 15.5852C36.2467 16.0398 36.5668 16.3864 36.9759 16.625C37.3849 16.8598 37.8603 16.9773 38.402 16.9773C38.7543 16.9773 39.0724 16.928 39.3565 16.8295C39.6444 16.7273 39.8925 16.5758 40.1009 16.375C40.3092 16.1705 40.4702 15.9167 40.5838 15.6136L41.8793 15.9773C41.7429 16.4167 41.5137 16.803 41.1918 17.1364C40.8698 17.4659 40.4721 17.7235 39.9986 17.9091C39.5251 18.0909 38.9929 18.1818 38.402 18.1818Z" fill="white"/>
<path d="M64.8549 19.7334C60.813 19.7334 57.5227 16.1434 57.5227 11.7334C57.5227 7.3234 60.813 3.7334 64.8549 3.7334C68.8967 3.7334 72.187 7.3234 72.187 11.7334C72.187 16.1434 68.8967 19.7334 64.8549 19.7334ZM64.8549 1.7334C59.7865 1.7334 55.6897 6.2034 55.6897 11.7334C55.6897 17.2634 59.7865 21.7334 64.8549 21.7334C69.9232 21.7334 74.02 17.2634 74.02 11.7334C74.02 6.2034 69.9232 1.7334 64.8549 1.7334ZM67.2286 7.7334L64.8549 10.3234L62.4811 7.7334L61.1888 9.1434L63.5626 11.7334L61.1888 14.3234L62.4811 15.7334L64.8549 13.1434L67.2286 15.7334L68.5209 14.3234L66.1471 11.7334L68.5209 9.1434L67.2286 7.7334Z" fill="#F5C518"/>
</svg>
