<svg width="708" height="122" viewBox="0 0 708 122" fill="none" xmlns="http://www.w3.org/2000/svg">
<path d="M61.75 79.125L58.8125 96H14.0625L17 79.125H61.75ZM37.5625 5L21.75 96H0.375L16.125 5H37.5625ZM100.25 97.25C95.5833 97.1667 91.3333 96.3125 87.5 94.6875C83.6667 93.0208 80.4167 90.7292 77.75 87.8125C75.0833 84.8958 73.1042 81.4792 71.8125 77.5625C70.5625 73.6042 70.1042 69.2917 70.4375 64.625L70.6875 62.1875C71.1875 57.2708 72.3542 52.6875 74.1875 48.4375C76.0208 44.1458 78.4792 40.3958 81.5625 37.1875C84.6458 33.9375 88.2708 31.4167 92.4375 29.625C96.6458 27.8333 101.354 27 106.562 27.125C111.271 27.2083 115.333 28.1458 118.75 29.9375C122.208 31.7292 125.021 34.1667 127.188 37.25C129.354 40.2917 130.854 43.7917 131.688 47.75C132.562 51.6667 132.771 55.8333 132.312 60.25L131.125 68.8125H77.375L79.5 55.625L112.625 55.6875L113 53.875C113.292 51.9167 113.208 50.1458 112.75 48.5625C112.292 46.9792 111.438 45.7292 110.188 44.8125C108.938 43.8542 107.25 43.3333 105.125 43.25C102.542 43.2083 100.396 43.7708 98.6875 44.9375C97.0208 46.1042 95.6667 47.6458 94.625 49.5625C93.625 51.4792 92.8542 53.5625 92.3125 55.8125C91.7708 58.0208 91.375 60.1458 91.125 62.1875L90.875 64.5625C90.7083 66.6042 90.7708 68.5833 91.0625 70.5C91.3542 72.4167 91.9375 74.1458 92.8125 75.6875C93.7292 77.2292 94.9583 78.4792 96.5 79.4375C98.0417 80.3542 99.9792 80.8542 102.312 80.9375C105.438 81.0208 108.354 80.4375 111.062 79.1875C113.771 77.9375 116.208 76.2292 118.375 74.0625L126.938 85.4375C125.062 88.2708 122.646 90.5625 119.688 92.3125C116.729 94.0208 113.542 95.2708 110.125 96.0625C106.75 96.8958 103.458 97.2917 100.25 97.25ZM180.938 28.375L178.375 43H138.75L141.312 28.375H180.938ZM152.5 11.5625H173.062L162.312 74.0625C162.146 75.5208 162.146 76.7292 162.312 77.6875C162.479 78.6042 162.917 79.3125 163.625 79.8125C164.375 80.2708 165.521 80.5417 167.062 80.625C167.938 80.6667 168.812 80.6458 169.688 80.5625C170.562 80.4792 171.438 80.3958 172.312 80.3125L170.875 95.5625C169.083 96.1458 167.25 96.5625 165.375 96.8125C163.542 97.0625 161.667 97.1875 159.75 97.1875C155.5 97.1042 151.938 96.25 149.062 94.625C146.229 92.9583 144.167 90.6042 142.875 87.5625C141.625 84.4792 141.188 80.8125 141.562 76.5625L152.5 11.5625ZM213.812 0L212.25 10.1875C211.792 13.2708 210.896 16.2292 209.562 19.0625C208.229 21.8542 206.583 24.4792 204.625 26.9375C202.667 29.3542 200.521 31.5625 198.188 33.5625L188.875 28.375C190.708 25.4583 192.375 22.5625 193.875 19.6875C195.375 16.7708 196.438 13.6042 197.062 10.1875L198.812 0H213.812ZM232.688 76.625C233.021 74.875 232.5 73.5417 231.125 72.625C229.792 71.6667 228.188 70.9583 226.312 70.5C224.479 70 223 69.6042 221.875 69.3125C219.333 68.6458 216.812 67.7917 214.312 66.75C211.812 65.6667 209.542 64.3333 207.5 62.75C205.5 61.125 203.896 59.1875 202.688 56.9375C201.521 54.6458 201 51.9792 201.125 48.9375C201.25 45.1875 202.188 41.9375 203.938 39.1875C205.729 36.4375 208.042 34.1667 210.875 32.375C213.708 30.5417 216.792 29.1875 220.125 28.3125C223.5 27.4375 226.854 27.0417 230.188 27.125C234.771 27.1667 239.083 27.9792 243.125 29.5625C247.208 31.1458 250.521 33.5625 253.062 36.8125C255.646 40.0625 256.958 44.1875 257 49.1875L236.562 49.125C236.604 47.5 236.396 46.0833 235.938 44.875C235.521 43.6667 234.792 42.75 233.75 42.125C232.708 41.4583 231.292 41.125 229.5 41.125C228.167 41.125 226.854 41.3958 225.562 41.9375C224.271 42.4792 223.146 43.25 222.188 44.25C221.271 45.25 220.688 46.4583 220.438 47.875C220.188 49.0833 220.354 50.1042 220.938 50.9375C221.521 51.7292 222.312 52.375 223.312 52.875C224.312 53.375 225.354 53.7917 226.438 54.125C227.562 54.4167 228.562 54.6458 229.438 54.8125C233.229 55.7292 236.896 56.9583 240.438 58.5C244.021 60 246.938 62.1458 249.188 64.9375C251.479 67.6875 252.562 71.3542 252.438 75.9375C252.312 79.8125 251.271 83.125 249.312 85.875C247.354 88.5833 244.833 90.7917 241.75 92.5C238.708 94.1667 235.417 95.375 231.875 96.125C228.375 96.9167 224.979 97.2917 221.688 97.25C217.104 97.1667 212.771 96.25 208.688 94.5C204.604 92.7083 201.271 90.125 198.688 86.75C196.146 83.3333 194.812 79.1458 194.688 74.1875L213.688 74.25C213.729 76.2083 214.083 77.8542 214.75 79.1875C215.458 80.4792 216.479 81.4792 217.812 82.1875C219.146 82.8542 220.792 83.1875 222.75 83.1875C224.208 83.1875 225.625 82.9792 227 82.5625C228.417 82.1042 229.625 81.3958 230.625 80.4375C231.667 79.4375 232.354 78.1667 232.688 76.625ZM323.375 97.25C318.708 97.1667 314.458 96.3125 310.625 94.6875C306.792 93.0208 303.542 90.7292 300.875 87.8125C298.208 84.8958 296.229 81.4792 294.938 77.5625C293.688 73.6042 293.229 69.2917 293.562 64.625L293.812 62.1875C294.312 57.2708 295.479 52.6875 297.312 48.4375C299.146 44.1458 301.604 40.3958 304.688 37.1875C307.771 33.9375 311.396 31.4167 315.562 29.625C319.771 27.8333 324.479 27 329.688 27.125C334.396 27.2083 338.458 28.1458 341.875 29.9375C345.333 31.7292 348.146 34.1667 350.312 37.25C352.479 40.2917 353.979 43.7917 354.812 47.75C355.688 51.6667 355.896 55.8333 355.438 60.25L354.25 68.8125H300.5L302.625 55.625L335.75 55.6875L336.125 53.875C336.417 51.9167 336.333 50.1458 335.875 48.5625C335.417 46.9792 334.562 45.7292 333.312 44.8125C332.062 43.8542 330.375 43.3333 328.25 43.25C325.667 43.2083 323.521 43.7708 321.812 44.9375C320.146 46.1042 318.792 47.6458 317.75 49.5625C316.75 51.4792 315.979 53.5625 315.438 55.8125C314.896 58.0208 314.5 60.1458 314.25 62.1875L314 64.5625C313.833 66.6042 313.896 68.5833 314.188 70.5C314.479 72.4167 315.062 74.1458 315.938 75.6875C316.854 77.2292 318.083 78.4792 319.625 79.4375C321.167 80.3542 323.104 80.8542 325.438 80.9375C328.562 81.0208 331.479 80.4375 334.188 79.1875C336.896 77.9375 339.333 76.2292 341.5 74.0625L350.062 85.4375C348.188 88.2708 345.771 90.5625 342.812 92.3125C339.854 94.0208 336.667 95.2708 333.25 96.0625C329.875 96.8958 326.583 97.2917 323.375 97.25ZM385.875 28.375L392.062 46.875L404.5 28.375H426.75L403.75 62.25L416.125 96H395.562L388.5 76.125L375.25 96H352.812L377 60.375L365.25 28.375H385.875ZM451.688 42.5L437.875 122H417.312L433.562 28.375H452.625L451.688 42.5ZM488.562 61L488.375 62.3125C487.917 66.3958 486.979 70.5208 485.562 74.6875C484.188 78.8542 482.292 82.6667 479.875 86.125C477.5 89.5833 474.542 92.3542 471 94.4375C467.458 96.4792 463.292 97.4375 458.5 97.3125C454.292 97.1875 450.854 96.0208 448.188 93.8125C445.521 91.5625 443.438 88.7292 441.938 85.3125C440.479 81.8542 439.458 78.2083 438.875 74.375C438.333 70.5 438.104 66.8958 438.188 63.5625L438.375 61.75C439 58.0833 440.042 54.2083 441.5 50.125C442.958 46.0417 444.875 42.25 447.25 38.75C449.625 35.2083 452.479 32.3542 455.812 30.1875C459.146 27.9792 463.021 26.9375 467.438 27.0625C472.062 27.1875 475.854 28.2917 478.812 30.375C481.771 32.4167 484.021 35.1042 485.562 38.4375C487.104 41.7292 488.083 45.3542 488.5 49.3125C488.917 53.2708 488.938 57.1667 488.562 61ZM467.875 62.25L468 60.9375C468.125 59.4375 468.229 57.7083 468.312 55.75C468.396 53.7917 468.271 51.875 467.938 50C467.646 48.125 466.958 46.5625 465.875 45.3125C464.833 44.0208 463.229 43.3333 461.062 43.25C458.521 43.125 456.396 43.5208 454.688 44.4375C452.979 45.3542 451.583 46.625 450.5 48.25C449.458 49.875 448.646 51.7083 448.062 53.75C447.479 55.75 447.062 57.8125 446.812 59.9375L446.25 65.0625C445.958 67.4375 445.896 69.8542 446.062 72.3125C446.229 74.7292 446.938 76.7708 448.188 78.4375C449.479 80.1042 451.646 80.9792 454.688 81.0625C457.104 81.1042 459.104 80.5208 460.688 79.3125C462.312 78.1042 463.604 76.5208 464.562 74.5625C465.562 72.6042 466.312 70.5417 466.812 68.375C467.312 66.1667 467.667 64.125 467.875 62.25ZM529.875 0L513.25 96H492.625L509.25 0H529.875ZM529 63.25L529.125 61.9375C529.667 57.0625 530.854 52.5 532.688 48.25C534.521 44 536.958 40.2708 540 37.0625C543.083 33.8542 546.708 31.375 550.875 29.625C555.042 27.8333 559.708 27 564.875 27.125C569.833 27.2083 574.125 28.1667 577.75 30C581.375 31.8333 584.354 34.3333 586.688 37.5C589.021 40.625 590.667 44.25 591.625 48.375C592.625 52.4583 592.917 56.8125 592.5 61.4375L592.375 62.8125C591.833 67.6458 590.625 72.1667 588.75 76.375C586.875 80.5833 584.396 84.2708 581.312 87.4375C578.271 90.6042 574.667 93.0625 570.5 94.8125C566.333 96.5625 561.688 97.375 556.562 97.25C551.688 97.1667 547.417 96.2292 543.75 94.4375C540.125 92.6042 537.146 90.1458 534.812 87.0625C532.479 83.9375 530.812 80.3542 529.812 76.3125C528.854 72.2292 528.583 67.875 529 63.25ZM549.688 61.9375L549.562 63.25C549.438 64.9583 549.354 66.8333 549.312 68.875C549.312 70.875 549.542 72.8125 550 74.6875C550.458 76.5208 551.292 78.0417 552.5 79.25C553.75 80.4167 555.542 81.0417 557.875 81.125C560.375 81.2083 562.458 80.6875 564.125 79.5625C565.833 78.4375 567.208 76.9375 568.25 75.0625C569.292 73.1875 570.083 71.1667 570.625 69C571.208 66.8333 571.604 64.75 571.812 62.75L571.938 61.4375C572.062 59.7708 572.125 57.9167 572.125 55.875C572.167 53.7917 571.958 51.8125 571.5 49.9375C571.042 48.0625 570.188 46.5208 568.938 45.3125C567.688 44.0625 565.896 43.3958 563.562 43.3125C561.062 43.2292 558.958 43.7708 557.25 44.9375C555.583 46.1042 554.229 47.6458 553.188 49.5625C552.146 51.4375 551.354 53.4792 550.812 55.6875C550.271 57.8542 549.896 59.9375 549.688 61.9375ZM624.75 46.25L616.125 96H595.562L607.312 28.375H626.438L624.75 46.25ZM646.875 27.8125L644.188 47.4375C643.104 47.2708 642.021 47.125 640.938 47C639.854 46.875 638.75 46.7917 637.625 46.75C635.333 46.7083 633.25 46.9792 631.375 47.5625C629.542 48.1042 627.938 48.9583 626.562 50.125C625.229 51.25 624.125 52.6667 623.25 54.375C622.375 56.0833 621.729 58.0625 621.312 60.3125L617.875 57.8125C618.292 54.6458 618.958 51.2917 619.875 47.75C620.833 44.1667 622.167 40.7917 623.875 37.625C625.583 34.4583 627.792 31.8958 630.5 29.9375C633.208 27.9375 636.542 26.9375 640.5 26.9375C641.583 26.9375 642.646 27.0208 643.688 27.1875C644.729 27.3542 645.792 27.5625 646.875 27.8125ZM674.75 97.25C670.083 97.1667 665.833 96.3125 662 94.6875C658.167 93.0208 654.917 90.7292 652.25 87.8125C649.583 84.8958 647.604 81.4792 646.312 77.5625C645.062 73.6042 644.604 69.2917 644.938 64.625L645.188 62.1875C645.688 57.2708 646.854 52.6875 648.688 48.4375C650.521 44.1458 652.979 40.3958 656.062 37.1875C659.146 33.9375 662.771 31.4167 666.938 29.625C671.146 27.8333 675.854 27 681.062 27.125C685.771 27.2083 689.833 28.1458 693.25 29.9375C696.708 31.7292 699.521 34.1667 701.688 37.25C703.854 40.2917 705.354 43.7917 706.188 47.75C707.062 51.6667 707.271 55.8333 706.812 60.25L705.625 68.8125H651.875L654 55.625L687.125 55.6875L687.5 53.875C687.792 51.9167 687.708 50.1458 687.25 48.5625C686.792 46.9792 685.938 45.7292 684.688 44.8125C683.438 43.8542 681.75 43.3333 679.625 43.25C677.042 43.2083 674.896 43.7708 673.188 44.9375C671.521 46.1042 670.167 47.6458 669.125 49.5625C668.125 51.4792 667.354 53.5625 666.812 55.8125C666.271 58.0208 665.875 60.1458 665.625 62.1875L665.375 64.5625C665.208 66.6042 665.271 68.5833 665.562 70.5C665.854 72.4167 666.438 74.1458 667.312 75.6875C668.229 77.2292 669.458 78.4792 671 79.4375C672.542 80.3542 674.479 80.8542 676.812 80.9375C679.938 81.0208 682.854 80.4375 685.562 79.1875C688.271 77.9375 690.708 76.2292 692.875 74.0625L701.438 85.4375C699.562 88.2708 697.146 90.5625 694.188 92.3125C691.229 94.0208 688.042 95.2708 684.625 96.0625C681.25 96.8958 677.958 97.2917 674.75 97.25Z" fill="black" fill-opacity="0.9"/>
<path d="M61.75 79.125L64.7056 79.6395L65.3173 76.125H61.75V79.125ZM58.8125 96V99H61.3354L61.7681 96.5145L58.8125 96ZM14.0625 96L11.1069 95.4855L10.4952 99H14.0625V96ZM17 79.125V76.125H14.4771L14.0444 78.6105L17 79.125ZM37.5625 5L40.5182 5.5136L41.1287 2H37.5625V5ZM21.75 96V99H24.2737L24.7057 96.5136L21.75 96ZM0.375 96L-2.58105 95.4884L-3.18883 99H0.375V96ZM16.125 5V2H13.5996L13.1689 4.48838L16.125 5ZM58.7944 78.6105L55.8569 95.4855L61.7681 96.5145L64.7056 79.6395L58.7944 78.6105ZM58.8125 93H14.0625V99H58.8125V93ZM17.0181 96.5145L19.9556 79.6395L14.0444 78.6105L11.1069 95.4855L17.0181 96.5145ZM17 82.125H61.75V76.125H17V82.125ZM34.6068 4.4864L18.7943 95.4864L24.7057 96.5136L40.5182 5.5136L34.6068 4.4864ZM21.75 93H0.375V99H21.75V93ZM3.33105 96.5116L19.0811 5.51162L13.1689 4.48838L-2.58105 95.4884L3.33105 96.5116ZM16.125 8H37.5625V2H16.125V8ZM100.25 97.25L100.196 100.25L100.204 100.25L100.211 100.25L100.25 97.25ZM87.5 94.6875L86.3038 97.4387L86.3164 97.4442L86.3291 97.4496L87.5 94.6875ZM71.8125 77.5625L68.9518 78.4659L68.9575 78.484L68.9634 78.5021L71.8125 77.5625ZM70.4375 64.625L67.4532 64.3189L67.4484 64.365L67.4451 64.4113L70.4375 64.625ZM70.6875 62.1875L73.6718 62.4936L73.6721 62.491L70.6875 62.1875ZM74.1875 48.4375L76.9422 49.6258L76.9463 49.616L74.1875 48.4375ZM81.5625 37.1875L83.7255 39.2663L83.7322 39.2593L83.7389 39.2523L81.5625 37.1875ZM92.4375 29.625L91.2623 26.8647L91.2524 26.869L92.4375 29.625ZM106.562 27.125L106.491 30.1241L106.5 30.1244L106.509 30.1245L106.562 27.125ZM118.75 29.9375L117.357 32.5944L117.363 32.5978L117.37 32.6012L118.75 29.9375ZM127.188 37.25L124.733 38.9748L124.738 38.9827L124.744 38.9905L127.188 37.25ZM131.688 47.75L128.752 48.368L128.756 48.3861L128.76 48.4041L131.688 47.75ZM132.312 60.25L135.284 60.6621L135.291 60.611L135.296 60.5597L132.312 60.25ZM131.125 68.8125V71.8125H133.738L134.097 69.2246L131.125 68.8125ZM77.375 68.8125L74.4132 68.3352L73.8529 71.8125H77.375V68.8125ZM79.5 55.625L79.5057 52.625L76.9455 52.6202L76.5382 55.1477L79.5 55.625ZM112.625 55.6875L112.619 58.6875L115.067 58.6921L115.563 56.2953L112.625 55.6875ZM113 53.875L115.938 54.4828L115.955 54.4003L115.967 54.3169L113 53.875ZM110.188 44.8125L108.362 47.1933L108.388 47.2128L108.413 47.2317L110.188 44.8125ZM105.125 43.25L105.243 40.2523L105.208 40.2509L105.173 40.2504L105.125 43.25ZM98.6875 44.9375L96.9956 42.4601L96.9813 42.4699L96.9671 42.4798L98.6875 44.9375ZM94.625 49.5625L91.9891 48.13L91.977 48.1523L91.9652 48.1748L94.625 49.5625ZM92.3125 55.8125L95.2262 56.5272L95.2292 56.5147L92.3125 55.8125ZM91.125 62.1875L88.1472 61.8229L88.1441 61.8481L88.1415 61.8734L91.125 62.1875ZM90.875 64.5625L87.8915 64.2484L87.8878 64.2834L87.8849 64.3184L90.875 64.5625ZM92.8125 75.6875L90.2034 77.1683L90.2184 77.1947L90.2339 77.2207L92.8125 75.6875ZM96.5 79.4375L94.9162 81.9854L94.9413 82.001L94.9668 82.0161L96.5 79.4375ZM102.312 80.9375L102.205 83.9356L102.219 83.9361L102.233 83.9364L102.312 80.9375ZM118.375 74.0625L120.772 72.2583L118.695 69.4996L116.254 71.9412L118.375 74.0625ZM126.938 85.4375L129.439 87.0931L130.609 85.3261L129.334 83.6333L126.938 85.4375ZM119.688 92.3125L121.188 94.9104L121.201 94.9026L121.215 94.8946L119.688 92.3125ZM110.125 96.0625L109.448 93.1399L109.427 93.1448L109.406 93.15L110.125 96.0625ZM100.304 94.2505C95.9747 94.1732 92.1101 93.3834 88.6709 91.9254L86.3291 97.4496C90.5566 99.2416 95.1919 100.16 100.196 100.25L100.304 94.2505ZM88.6962 91.9363C85.2267 90.4278 82.33 88.3759 79.9641 85.7882L75.5359 89.8368C78.5033 93.0824 82.1066 95.6138 86.3038 97.4387L88.6962 91.9363ZM79.9641 85.7882C77.5958 83.1979 75.8265 80.1552 74.6616 76.6229L68.9634 78.5021C70.3819 82.8032 72.5709 86.5938 75.5359 89.8368L79.9641 85.7882ZM74.6732 76.6591C73.5507 73.1045 73.1201 69.1758 73.4299 64.8387L67.4451 64.4113C67.0882 69.4076 67.5743 74.1039 68.9518 78.4659L74.6732 76.6591ZM73.4218 64.9311L73.6718 62.4936L67.7032 61.8814L67.4532 64.3189L73.4218 64.9311ZM73.6721 62.491C74.1432 57.8586 75.2382 53.5759 76.9421 49.6258L71.4329 47.2492C69.4702 51.7991 68.2318 56.683 67.7029 61.884L73.6721 62.491ZM76.9463 49.616C78.6442 45.6415 80.9057 42.2004 83.7255 39.2663L79.3995 35.1087C76.0526 38.5913 73.3975 42.6502 71.4287 47.259L76.9463 49.616ZM83.7389 39.2523C86.5385 36.3013 89.825 34.014 93.6226 32.381L91.2524 26.869C86.7166 28.8194 82.7531 31.5737 79.3861 35.1227L83.7389 39.2523ZM93.6127 32.3853C97.3758 30.7831 101.651 30.008 106.491 30.1241L106.634 24.1259C101.058 23.992 95.9159 24.8835 91.2623 26.8647L93.6127 32.3853ZM106.509 30.1245C110.852 30.2014 114.435 31.0624 117.357 32.5944L120.143 27.2806C116.231 25.2292 111.69 24.2153 106.616 24.1255L106.509 30.1245ZM117.37 32.6012C120.415 34.1786 122.853 36.2998 124.733 38.9748L129.642 35.5252C127.188 32.0335 124.002 29.2797 120.13 27.2738L117.37 32.6012ZM124.744 38.9905C126.652 41.6687 127.996 44.7798 128.752 48.368L134.623 47.132C133.712 42.8036 132.057 38.9146 129.631 35.5095L124.744 38.9905ZM128.76 48.4041C129.557 51.9729 129.757 55.8118 129.329 59.9403L135.296 60.5597C135.785 55.8549 135.568 51.3605 134.615 47.0959L128.76 48.4041ZM129.341 59.8379L128.153 68.4004L134.097 69.2246L135.284 60.6621L129.341 59.8379ZM131.125 65.8125H77.375V71.8125H131.125V65.8125ZM80.3368 69.2898L82.4618 56.1023L76.5382 55.1477L74.4132 68.3352L80.3368 69.2898ZM79.4943 58.625L112.619 58.6875L112.631 52.6875L79.5057 52.625L79.4943 58.625ZM115.563 56.2953L115.938 54.4828L110.062 53.2672L109.687 55.0797L115.563 56.2953ZM115.967 54.3169C116.31 52.0164 116.232 49.8008 115.632 47.7283L109.868 49.3967C110.185 50.4909 110.273 51.8169 110.033 53.4331L115.967 54.3169ZM115.632 47.7283C115.002 45.552 113.781 43.7273 111.962 42.3933L108.413 47.2317C109.094 47.731 109.582 48.4064 109.868 49.3967L115.632 47.7283ZM112.013 42.4317C110.125 40.9846 107.774 40.3516 105.243 40.2523L105.007 46.2477C106.726 46.3151 107.75 46.7238 108.362 47.1933L112.013 42.4317ZM105.173 40.2504C102.126 40.2012 99.3312 40.8651 96.9956 42.4601L100.379 47.4149C101.46 46.6766 102.958 46.2154 105.077 46.2496L105.173 40.2504ZM96.9671 42.4798C94.8929 43.9317 93.2361 45.8355 91.9891 48.13L97.2609 50.995C98.0972 49.4562 99.1488 48.2766 100.408 47.3952L96.9671 42.4798ZM91.9652 48.1748C90.8443 50.3233 89.9908 52.6389 89.3958 55.1103L95.2292 56.5147C95.7175 54.4861 96.4057 52.635 97.2848 50.9502L91.9652 48.1748ZM89.3989 55.0978C88.8318 57.4096 88.4131 59.6518 88.1472 61.8229L94.1028 62.5521C94.3369 60.6398 94.7098 58.6321 95.2261 56.5272L89.3989 55.0978ZM88.1415 61.8734L87.8915 64.2484L93.8585 64.8766L94.1085 62.5016L88.1415 61.8734ZM87.8849 64.3184C87.7004 66.579 87.768 68.792 88.0966 70.9513L94.0284 70.0487C93.7736 68.3747 93.7163 66.6294 93.8651 64.8066L87.8849 64.3184ZM88.0966 70.9513C88.4382 73.1961 89.1314 75.2796 90.2034 77.1683L95.4216 74.2067C94.7436 73.0121 94.2701 71.6372 94.0284 70.0487L88.0966 70.9513ZM90.2339 77.2207C91.3992 79.1805 92.9716 80.7765 94.9162 81.9854L98.0838 76.8896C96.9451 76.1818 96.0591 75.2778 95.3911 74.1543L90.2339 77.2207ZM94.9668 82.0161C97.0522 83.2561 99.5164 83.8396 102.205 83.9356L102.42 77.9394C100.442 77.8688 99.0311 77.4522 98.0332 76.8589L94.9668 82.0161ZM102.233 83.9364C105.796 84.0314 109.172 83.3639 112.32 81.9114L109.805 76.4636C107.536 77.5111 105.079 78.0102 102.392 77.9386L102.233 83.9364ZM112.32 81.9114C115.358 80.509 118.086 78.5938 120.496 76.1838L116.254 71.9412C114.33 73.8645 112.184 75.366 109.805 76.4636L112.32 81.9114ZM115.978 75.8667L124.541 87.2417L129.334 83.6333L120.772 72.2583L115.978 75.8667ZM124.436 83.7819C122.814 86.2321 120.732 88.2088 118.16 89.7304L121.215 94.8946C124.559 92.9162 127.311 90.3095 129.439 87.0931L124.436 83.7819ZM118.187 89.7146C115.493 91.2707 112.583 92.4134 109.448 93.1399L110.802 98.9851C114.5 98.1283 117.966 96.771 121.188 94.9104L118.187 89.7146ZM109.406 93.15C106.258 93.9271 103.222 94.2883 100.289 94.2503L100.211 100.25C103.695 100.295 107.242 99.8645 110.844 98.975L109.406 93.15ZM180.938 28.375L183.892 28.8928L184.509 25.375H180.938V28.375ZM178.375 43V46H180.895L181.33 43.5178L178.375 43ZM138.75 43L135.795 42.4822L135.179 46H138.75V43ZM141.312 28.375V25.375H138.792L138.358 27.8572L141.312 28.375ZM152.5 11.5625V8.5625H149.963L149.542 11.0647L152.5 11.5625ZM173.062 11.5625L176.019 12.071L176.623 8.5625H173.062V11.5625ZM162.312 74.0625L159.356 73.554L159.342 73.6376L159.332 73.7219L162.312 74.0625ZM162.312 77.6875L159.357 78.2015L159.359 78.2128L159.361 78.2242L162.312 77.6875ZM163.625 79.8125L161.895 82.2634L161.976 82.3206L162.061 82.3723L163.625 79.8125ZM167.062 80.625L166.901 83.6206L166.91 83.6211L166.92 83.6216L167.062 80.625ZM172.312 80.3125L175.299 80.594L175.64 76.982L172.028 77.326L172.312 80.3125ZM170.875 95.5625L171.804 98.4151L173.677 97.8053L173.862 95.844L170.875 95.5625ZM165.375 96.8125L164.979 93.8388L164.97 93.84L165.375 96.8125ZM159.75 97.1875L159.691 100.187L159.721 100.188H159.75V97.1875ZM149.062 94.625L147.541 97.2108L147.564 97.2239L147.586 97.2367L149.062 94.625ZM142.875 87.5625L140.095 88.6896L140.104 88.7124L140.114 88.7351L142.875 87.5625ZM141.562 76.5625L138.604 76.0647L138.584 76.1812L138.574 76.2988L141.562 76.5625ZM177.983 27.8572L175.42 42.4822L181.33 43.5178L183.892 28.8928L177.983 27.8572ZM178.375 40H138.75V46H178.375V40ZM141.705 43.5178L144.267 28.8928L138.358 27.8572L135.795 42.4822L141.705 43.5178ZM141.312 31.375H180.938V25.375H141.312V31.375ZM152.5 14.5625H173.062V8.5625H152.5V14.5625ZM170.106 11.054L159.356 73.554L165.269 74.571L176.019 12.071L170.106 11.054ZM159.332 73.7219C159.147 75.3357 159.123 76.8565 159.357 78.2015L165.268 77.1735C165.169 76.6018 165.144 75.706 165.293 74.4031L159.332 73.7219ZM159.361 78.2242C159.657 79.8507 160.493 81.2741 161.895 82.2634L165.355 77.3616C165.333 77.3458 165.323 77.3362 165.321 77.3342C165.32 77.3324 165.319 77.3318 165.318 77.3298C165.317 77.3275 165.31 77.3161 165.3 77.2905C165.29 77.2643 165.277 77.2194 165.264 77.1508L159.361 78.2242ZM162.061 82.3723C163.445 83.2182 165.186 83.528 166.901 83.6206L167.224 77.6294C165.855 77.5554 165.305 77.3235 165.189 77.2527L162.061 82.3723ZM166.92 83.6216C167.938 83.6701 168.955 83.6458 169.972 83.549L169.403 77.576C168.67 77.6459 167.937 77.6633 167.205 77.6284L166.92 83.6216ZM169.972 83.549C170.139 83.5331 170.133 83.5336 170.3 83.5177C170.467 83.5019 170.462 83.5024 170.628 83.4865C170.795 83.4706 170.79 83.4711 170.956 83.4552C171.123 83.4394 171.118 83.4399 171.284 83.424C171.646 83.3896 172.236 83.3334 172.597 83.299L172.028 77.326C171.903 77.3379 171.989 77.3297 171.864 77.3416C171.739 77.3535 171.825 77.3454 171.7 77.3573C171.575 77.3692 171.661 77.361 171.536 77.3729C171.411 77.3848 171.497 77.3766 171.372 77.3885C171.247 77.4004 171.333 77.3922 171.208 77.4041C171.083 77.416 171.169 77.4079 171.044 77.4198C170.919 77.4317 171.005 77.4235 170.88 77.4354C170.755 77.4473 170.841 77.4391 170.716 77.451C170.591 77.4629 170.512 77.4704 170.387 77.4823C170.262 77.4942 170.184 77.5016 170.059 77.5135C169.934 77.5254 169.856 77.5329 169.731 77.5448C169.606 77.5567 169.528 77.5641 169.403 77.576L169.972 83.549ZM169.326 80.031L167.888 95.281L173.862 95.844L175.299 80.594L169.326 80.031ZM169.946 92.7099C168.329 93.2365 166.673 93.6128 164.979 93.8388L165.771 99.7862C167.827 99.5122 169.838 99.0551 171.804 98.4151L169.946 92.7099ZM164.97 93.84C163.275 94.0711 161.536 94.1875 159.75 94.1875V100.188C161.797 100.188 163.808 100.054 165.78 99.785L164.97 93.84ZM159.809 94.1881C155.917 94.1118 152.874 93.3333 150.539 92.0133L147.586 97.2367C151.001 99.1667 155.083 100.097 159.691 100.187L159.809 94.1881ZM150.584 92.0392C148.308 90.7004 146.678 88.8431 145.636 86.3899L140.114 88.7351C141.655 92.3652 144.151 95.2163 147.541 97.2108L150.584 92.0392ZM145.655 86.4354C144.627 83.8993 144.206 80.7324 144.551 76.8262L138.574 76.2988C138.169 80.8926 138.623 85.0591 140.095 88.6896L145.655 86.4354ZM144.521 77.0603L155.458 12.0603L149.542 11.0647L138.604 76.0647L144.521 77.0603ZM213.812 0L216.778 0.454805L217.308 -3H213.812V0ZM212.25 10.1875L209.285 9.73269L209.283 9.7464L212.25 10.1875ZM209.562 19.0625L212.27 20.3554L212.273 20.3477L212.277 20.3399L209.562 19.0625ZM204.625 26.9375L206.956 28.8263L206.964 28.8165L206.971 28.8067L204.625 26.9375ZM198.188 33.5625L196.728 36.1833L198.553 37.2003L200.14 35.8403L198.188 33.5625ZM188.875 28.375L186.335 26.7785L184.652 29.4565L187.415 30.9958L188.875 28.375ZM193.875 19.6875L196.535 21.0752L196.539 21.0674L196.543 21.0595L193.875 19.6875ZM197.062 10.1875L200.014 10.7273L200.016 10.7114L200.019 10.6954L197.062 10.1875ZM198.812 0V-3H196.284L195.856 -0.507898L198.812 0ZM210.847 -0.454805L209.285 9.7327L215.215 10.6423L216.778 0.454805L210.847 -0.454805ZM209.283 9.7464C208.868 12.5388 208.057 15.2155 206.848 17.7851L212.277 20.3399C213.734 17.2429 214.716 14.0029 215.217 10.6286L209.283 9.7464ZM206.855 17.7696C205.622 20.3528 204.097 22.7849 202.279 25.0683L206.971 28.8067C209.069 26.1734 210.837 23.3555 212.27 20.3554L206.855 17.7696ZM202.294 25.0487C200.449 27.3263 198.429 29.4041 196.235 31.2847L200.14 35.8403C202.613 33.7209 204.885 31.382 206.956 28.8263L202.294 25.0487ZM199.647 30.9417L190.335 25.7542L187.415 30.9958L196.728 36.1833L199.647 30.9417ZM191.415 29.9715C193.288 26.9911 194.995 24.0256 196.535 21.0752L191.215 18.2998C189.755 21.0994 188.128 23.9256 186.335 26.7785L191.415 29.9715ZM196.543 21.0595C198.185 17.8658 199.339 14.4167 200.014 10.7273L194.111 9.64768C193.536 12.7917 192.565 15.6758 191.207 18.3155L196.543 21.0595ZM200.019 10.6954L201.769 0.507898L195.856 -0.507898L194.106 9.6796L200.019 10.6954ZM198.812 3H213.812V-3H198.812V3ZM232.688 76.625L235.62 77.259L235.628 77.2228L235.635 77.1863L232.688 76.625ZM231.125 72.625L229.374 75.061L229.417 75.0919L229.461 75.1211L231.125 72.625ZM226.312 70.5L225.523 73.3943L225.562 73.4048L225.6 73.4142L226.312 70.5ZM221.875 69.3125L221.114 72.2143L221.122 72.2165L221.875 69.3125ZM214.312 66.75L213.12 69.5027L213.139 69.5111L213.159 69.5192L214.312 66.75ZM207.5 62.75L205.608 65.0783L205.635 65.0998L205.662 65.1207L207.5 62.75ZM202.688 56.9375L200.014 58.2985L200.029 58.3279L200.045 58.3569L202.688 56.9375ZM201.125 48.9375L204.122 49.0607L204.123 49.0491L204.123 49.0374L201.125 48.9375ZM203.938 39.1875L201.424 37.5499L201.415 37.5633L201.407 37.5769L203.938 39.1875ZM210.875 32.375L212.478 34.9106L212.492 34.9022L212.505 34.8937L210.875 32.375ZM220.125 28.3125L219.372 25.4085L219.363 25.4108L220.125 28.3125ZM230.188 27.125L230.113 30.1241L230.136 30.1247L230.16 30.1249L230.188 27.125ZM243.125 29.5625L242.031 32.3558L242.04 32.3596L243.125 29.5625ZM253.062 36.8125L250.699 38.6606L250.707 38.6699L250.714 38.6792L253.062 36.8125ZM257 49.1875L256.991 52.1875L260.025 52.1968L260 49.1625L257 49.1875ZM236.562 49.125L233.563 49.0481L233.485 52.1156L236.553 52.125L236.562 49.125ZM235.938 44.875L233.101 45.853L233.116 45.8962L233.133 45.939L235.938 44.875ZM233.75 42.125L232.133 44.6518L232.169 44.6752L232.207 44.6975L233.75 42.125ZM222.188 44.25L220.022 42.1743L219.999 42.1983L219.976 42.2228L222.188 44.25ZM220.438 47.875L223.375 48.4828L223.384 48.4397L223.392 48.3964L220.438 47.875ZM220.938 50.9375L218.48 52.6579L218.501 52.6878L218.522 52.7171L220.938 50.9375ZM226.438 54.125L225.555 56.9923L225.62 57.0121L225.685 57.029L226.438 54.125ZM229.438 54.8125L230.142 51.8965L230.071 51.8792L229.999 51.8655L229.438 54.8125ZM240.438 58.5L239.24 61.2507L239.26 61.2591L239.279 61.2673L240.438 58.5ZM249.188 64.9375L246.852 66.8201L246.867 66.8392L246.883 66.8581L249.188 64.9375ZM252.438 75.9375L255.436 76.0342L255.436 76.0268L255.436 76.0193L252.438 75.9375ZM249.312 85.875L251.744 87.6328L251.75 87.624L251.756 87.6152L249.312 85.875ZM241.75 92.5L243.192 95.131L243.204 95.1241L241.75 92.5ZM231.875 96.125L231.253 93.1901L231.233 93.1944L231.213 93.1989L231.875 96.125ZM221.688 97.25L221.633 100.25L221.641 100.25L221.65 100.25L221.688 97.25ZM208.688 94.5L207.482 97.2472L207.494 97.2524L207.506 97.2574L208.688 94.5ZM198.688 86.75L196.28 88.5406L196.293 88.5571L196.305 88.5734L198.688 86.75ZM194.688 74.1875L194.697 71.1875L191.611 71.1774L191.688 74.2631L194.688 74.1875ZM213.688 74.25L216.687 74.1862L216.625 71.2596L213.697 71.25L213.688 74.25ZM214.75 79.1875L212.067 80.5291L212.092 80.5801L212.12 80.63L214.75 79.1875ZM217.812 82.1875L216.405 84.8368L216.438 84.8542L216.471 84.8708L217.812 82.1875ZM227 82.5625L227.87 85.4336L227.897 85.4255L227.923 85.4168L227 82.5625ZM230.625 80.4375L232.701 82.6035L232.703 82.6017L230.625 80.4375ZM235.635 77.1863C235.881 75.8921 235.852 74.5282 235.341 73.2209C234.824 71.8962 233.907 70.874 232.789 70.1289L229.461 75.1211C229.718 75.2927 229.749 75.3954 229.753 75.4041C229.763 75.4302 229.827 75.6079 229.74 76.0637L235.635 77.1863ZM232.876 70.189C231.181 68.9704 229.209 68.1197 227.025 67.5858L225.6 73.4142C227.166 73.797 228.403 74.3629 229.374 75.061L232.876 70.189ZM227.102 67.6057C225.263 67.1042 223.77 66.7047 222.628 66.4085L221.122 72.2165C222.23 72.5037 223.695 72.8958 225.523 73.3943L227.102 67.6057ZM222.636 66.4107C220.232 65.7802 217.843 64.9709 215.466 63.9808L213.159 69.5192C215.782 70.6125 218.434 71.5115 221.114 72.2143L222.636 66.4107ZM215.505 63.9973C213.223 63.0084 211.171 61.8007 209.338 60.3793L205.662 65.1207C207.912 66.866 210.402 68.325 213.12 69.5027L215.505 63.9973ZM209.392 60.4217C207.697 59.0446 206.349 57.4152 205.33 55.5181L200.045 58.3569C201.442 60.9598 203.303 63.2054 205.608 65.0783L209.392 60.4217ZM205.361 55.5765C204.467 53.8213 204.015 51.6828 204.122 49.0607L198.128 48.8143C197.985 52.2755 198.574 55.4704 200.014 58.2985L205.361 55.5765ZM204.123 49.0374C204.233 45.7414 205.048 43.0307 206.468 40.7981L201.407 37.5769C199.327 40.8443 198.267 44.6336 198.127 48.8376L204.123 49.0374ZM206.451 40.8251C208.002 38.4442 210.001 36.4769 212.478 34.9106L209.272 29.8394C206.082 31.8564 203.456 34.4308 201.424 37.5499L206.451 40.8251ZM212.505 34.8937C215.065 33.2369 217.855 32.0101 220.887 31.2142L219.363 25.4108C215.729 26.3649 212.351 27.8464 209.245 29.8563L212.505 34.8937ZM220.878 31.2165C223.995 30.4083 227.071 30.048 230.113 30.1241L230.262 24.1259C226.638 24.0353 223.005 24.4667 219.372 25.4085L220.878 31.2165ZM230.16 30.1249C234.399 30.1634 238.348 30.913 242.031 32.3558L244.219 26.7692C239.819 25.0453 235.143 24.1699 230.215 24.1251L230.16 30.1249ZM242.04 32.3596C245.652 33.76 248.511 35.8628 250.699 38.6606L255.426 34.9644C252.53 31.2622 248.765 28.5316 244.21 26.7654L242.04 32.3596ZM250.714 38.6792C252.801 41.3044 253.963 44.7406 254 49.2125L260 49.1625C259.954 43.6344 258.491 38.8206 255.411 34.9458L250.714 38.6792ZM257.009 46.1875L236.572 46.125L236.553 52.125L256.991 52.1875L257.009 46.1875ZM239.562 49.2019C239.611 47.2843 239.37 45.4641 238.742 43.811L233.133 45.939C233.422 46.7026 233.598 47.7157 233.563 49.0481L239.562 49.2019ZM238.774 43.897C238.14 42.0595 236.973 40.5605 235.293 39.5525L232.207 44.6975C232.61 44.9395 232.902 45.2739 233.101 45.853L238.774 43.897ZM235.367 39.5982C233.672 38.5133 231.621 38.125 229.5 38.125V44.125C230.962 44.125 231.745 44.4034 232.133 44.6518L235.367 39.5982ZM229.5 38.125C227.748 38.125 226.043 38.4831 224.402 39.1709L226.723 44.7041C227.666 44.3086 228.585 44.125 229.5 44.125V38.125ZM224.402 39.1709C222.736 39.8697 221.268 40.8741 220.022 42.1743L224.353 46.3257C225.024 45.6259 225.806 45.0886 226.723 44.7041L224.402 39.1709ZM219.976 42.2228C218.65 43.6697 217.826 45.4102 217.483 47.3536L223.392 48.3964C223.549 47.5065 223.892 46.8303 224.399 46.2772L219.976 42.2228ZM217.5 47.2672C217.121 49.099 217.324 51.0067 218.48 52.6579L223.395 49.2171C223.384 49.2016 223.254 49.0677 223.375 48.4828L217.5 47.2672ZM218.522 52.7171C219.423 53.94 220.605 54.8754 221.971 55.5583L224.654 50.1917C224.02 49.8746 223.618 49.5183 223.353 49.1579L218.522 52.7171ZM221.971 55.5583C223.121 56.1332 224.316 56.6111 225.555 56.9923L227.32 51.2577C226.392 50.9723 225.504 50.6168 224.654 50.1917L221.971 55.5583ZM225.685 57.029C226.855 57.3325 227.921 57.5776 228.876 57.7595L229.999 51.8655C229.204 51.7141 228.27 51.5009 227.19 51.221L225.685 57.029ZM228.733 57.7285C232.357 58.6048 235.859 59.7789 239.24 61.2507L241.635 55.7493C237.933 54.1377 234.101 52.8535 230.142 51.8965L228.733 57.7285ZM239.279 61.2673C242.442 62.5913 244.94 64.4485 246.852 66.8201L251.523 63.0549C248.935 59.8432 245.6 57.4087 241.596 55.7327L239.279 61.2673ZM246.883 66.8581C248.588 68.9041 249.549 71.7914 249.439 75.8557L255.436 76.0193C255.576 70.917 254.37 66.4709 251.492 63.0169L246.883 66.8581ZM249.439 75.8408C249.33 79.2154 248.436 81.9346 246.869 84.1348L251.756 87.6152C254.106 84.3154 255.295 80.4096 255.436 76.0342L249.439 75.8408ZM246.881 84.1172C245.195 86.449 243.016 88.3691 240.296 89.8759L243.204 95.1241C246.651 93.2142 249.513 90.7176 251.744 87.6328L246.881 84.1172ZM240.308 89.8691C237.535 91.3888 234.521 92.4981 231.253 93.1901L232.497 99.0599C236.312 98.2519 239.882 96.9445 243.192 95.1309L240.308 89.8691ZM231.213 93.1989C227.922 93.9433 224.762 94.2887 221.725 94.2502L221.65 100.25C225.197 100.295 228.828 99.8901 232.537 99.0511L231.213 93.1989ZM221.742 94.2505C217.534 94.174 213.585 93.3349 209.869 91.7426L207.506 97.2574C211.957 99.1651 216.674 100.159 221.633 100.25L221.742 94.2505ZM209.893 91.7528C206.25 90.1544 203.33 87.8792 201.07 84.9266L196.305 88.5734C199.212 92.3708 202.958 95.2623 207.482 97.2472L209.893 91.7528ZM201.095 84.9594C198.981 82.1178 197.799 78.5563 197.687 74.1119L191.688 74.2631C191.826 79.7354 193.311 84.5489 196.28 88.5406L201.095 84.9594ZM194.678 77.1875L213.678 77.25L213.697 71.25L194.697 71.1875L194.678 77.1875ZM210.688 74.3138C210.736 76.5827 211.149 78.6943 212.067 80.5291L217.433 77.8459C217.017 77.0141 216.722 75.8339 216.687 74.1862L210.688 74.3138ZM212.12 80.63C213.117 82.4479 214.569 83.8613 216.405 84.8368L219.22 79.5382C218.39 79.097 217.8 78.5104 217.38 77.745L212.12 80.63ZM216.471 84.8708C218.33 85.8005 220.466 86.1875 222.75 86.1875V80.1875C221.117 80.1875 219.961 79.9078 219.154 79.5042L216.471 84.8708ZM222.75 86.1875C224.499 86.1875 226.209 85.937 227.87 85.4336L226.13 79.6914C225.041 80.0213 223.918 80.1875 222.75 80.1875V86.1875ZM227.923 85.4168C229.738 84.8297 231.349 83.8985 232.701 82.6035L228.549 78.2715C227.901 78.8932 227.095 79.3786 226.077 79.7082L227.923 85.4168ZM232.703 82.6017C234.215 81.1499 235.172 79.3281 235.62 77.259L229.755 75.991C229.536 77.0052 229.118 77.7251 228.547 78.2733L232.703 82.6017ZM323.375 97.25L323.321 100.25L323.329 100.25L323.336 100.25L323.375 97.25ZM310.625 94.6875L309.429 97.4387L309.441 97.4442L309.454 97.4496L310.625 94.6875ZM294.938 77.5625L292.077 78.4659L292.082 78.484L292.088 78.5021L294.938 77.5625ZM293.562 64.625L290.578 64.3189L290.573 64.365L290.57 64.4113L293.562 64.625ZM293.812 62.1875L296.797 62.4936L296.797 62.491L293.812 62.1875ZM297.312 48.4375L300.067 49.6258L300.071 49.616L297.312 48.4375ZM304.688 37.1875L306.851 39.2663L306.857 39.2593L306.864 39.2523L304.688 37.1875ZM315.562 29.625L314.387 26.8647L314.377 26.869L315.562 29.625ZM329.688 27.125L329.616 30.1241L329.625 30.1244L329.634 30.1245L329.688 27.125ZM341.875 29.9375L340.482 32.5944L340.488 32.5978L340.495 32.6012L341.875 29.9375ZM350.312 37.25L347.858 38.9748L347.863 38.9827L347.869 38.9905L350.312 37.25ZM354.812 47.75L351.877 48.368L351.881 48.3861L351.885 48.4041L354.812 47.75ZM355.438 60.25L358.409 60.6621L358.416 60.611L358.421 60.5597L355.438 60.25ZM354.25 68.8125V71.8125H356.863L357.222 69.2246L354.25 68.8125ZM300.5 68.8125L297.538 68.3352L296.978 71.8125H300.5V68.8125ZM302.625 55.625L302.631 52.625L300.07 52.6202L299.663 55.1477L302.625 55.625ZM335.75 55.6875L335.744 58.6875L338.192 58.6921L338.688 56.2953L335.75 55.6875ZM336.125 53.875L339.063 54.4828L339.08 54.4003L339.092 54.3169L336.125 53.875ZM333.312 44.8125L331.487 47.1933L331.513 47.2128L331.538 47.2317L333.312 44.8125ZM328.25 43.25L328.368 40.2523L328.333 40.2509L328.298 40.2504L328.25 43.25ZM321.812 44.9375L320.121 42.4601L320.106 42.4699L320.092 42.4798L321.812 44.9375ZM317.75 49.5625L315.114 48.13L315.102 48.1523L315.09 48.1748L317.75 49.5625ZM315.438 55.8125L318.351 56.5272L318.354 56.5147L315.438 55.8125ZM314.25 62.1875L311.272 61.8229L311.269 61.8481L311.266 61.8734L314.25 62.1875ZM314 64.5625L311.016 64.2484L311.013 64.2834L311.01 64.3184L314 64.5625ZM315.938 75.6875L313.328 77.1683L313.343 77.1947L313.359 77.2207L315.938 75.6875ZM319.625 79.4375L318.041 81.9854L318.066 82.001L318.092 82.0161L319.625 79.4375ZM325.438 80.9375L325.33 83.9356L325.344 83.9361L325.358 83.9364L325.438 80.9375ZM341.5 74.0625L343.897 72.2583L341.82 69.4996L339.379 71.9412L341.5 74.0625ZM350.062 85.4375L352.564 87.0931L353.734 85.3261L352.459 83.6333L350.062 85.4375ZM342.812 92.3125L344.313 94.9104L344.326 94.9026L344.34 94.8946L342.812 92.3125ZM333.25 96.0625L332.573 93.1399L332.552 93.1448L332.531 93.15L333.25 96.0625ZM323.429 94.2505C319.1 94.1732 315.235 93.3834 311.796 91.9254L309.454 97.4496C313.682 99.2416 318.317 100.16 323.321 100.25L323.429 94.2505ZM311.821 91.9363C308.352 90.4278 305.455 88.3759 303.089 85.7882L298.661 89.8368C301.628 93.0824 305.232 95.6138 309.429 97.4387L311.821 91.9363ZM303.089 85.7882C300.721 83.1979 298.951 80.1552 297.787 76.6229L292.088 78.5021C293.507 82.8032 295.696 86.5938 298.661 89.8368L303.089 85.7882ZM297.798 76.6591C296.676 73.1045 296.245 69.1758 296.555 64.8387L290.57 64.4113C290.213 69.4076 290.699 74.1039 292.077 78.4659L297.798 76.6591ZM296.547 64.9311L296.797 62.4936L290.828 61.8814L290.578 64.3189L296.547 64.9311ZM296.797 62.491C297.268 57.8586 298.363 53.5759 300.067 49.6258L294.558 47.2492C292.595 51.7991 291.357 56.683 290.828 61.884L296.797 62.491ZM300.071 49.616C301.769 45.6415 304.031 42.2004 306.851 39.2663L302.524 35.1087C299.178 38.5913 296.522 42.6502 294.554 47.259L300.071 49.616ZM306.864 39.2523C309.664 36.3013 312.95 34.014 316.748 32.381L314.377 26.869C309.842 28.8194 305.878 31.5737 302.511 35.1227L306.864 39.2523ZM316.738 32.3853C320.501 30.7831 324.776 30.008 329.616 30.1241L329.759 24.1259C324.183 23.992 319.041 24.8835 314.387 26.8647L316.738 32.3853ZM329.634 30.1245C333.977 30.2014 337.56 31.0624 340.482 32.5944L343.268 27.2806C339.356 25.2292 334.815 24.2153 329.741 24.1255L329.634 30.1245ZM340.495 32.6012C343.54 34.1786 345.978 36.2998 347.858 38.9748L352.767 35.5252C350.313 32.0335 347.127 29.2797 343.255 27.2738L340.495 32.6012ZM347.869 38.9905C349.777 41.6687 351.121 44.7798 351.877 48.368L357.748 47.132C356.837 42.8036 355.182 38.9146 352.756 35.5095L347.869 38.9905ZM351.885 48.4041C352.682 51.9729 352.882 55.8118 352.454 59.9403L358.421 60.5597C358.91 55.8549 358.693 51.3605 357.74 47.0959L351.885 48.4041ZM352.466 59.8379L351.278 68.4004L357.222 69.2246L358.409 60.6621L352.466 59.8379ZM354.25 65.8125H300.5V71.8125H354.25V65.8125ZM303.462 69.2898L305.587 56.1023L299.663 55.1477L297.538 68.3352L303.462 69.2898ZM302.619 58.625L335.744 58.6875L335.756 52.6875L302.631 52.625L302.619 58.625ZM338.688 56.2953L339.063 54.4828L333.187 53.2672L332.812 55.0797L338.688 56.2953ZM339.092 54.3169C339.435 52.0164 339.357 49.8008 338.757 47.7283L332.993 49.3967C333.31 50.4909 333.398 51.8169 333.158 53.4331L339.092 54.3169ZM338.757 47.7283C338.127 45.552 336.906 43.7273 335.087 42.3933L331.538 47.2317C332.219 47.731 332.707 48.4064 332.993 49.3967L338.757 47.7283ZM335.138 42.4317C333.25 40.9846 330.899 40.3516 328.368 40.2523L328.132 46.2477C329.851 46.3151 330.875 46.7238 331.487 47.1933L335.138 42.4317ZM328.298 40.2504C325.251 40.2012 322.456 40.8651 320.121 42.4601L323.504 47.4149C324.585 46.6766 326.083 46.2154 328.202 46.2496L328.298 40.2504ZM320.092 42.4798C318.018 43.9317 316.361 45.8355 315.114 48.13L320.386 50.995C321.222 49.4562 322.274 48.2766 323.533 47.3952L320.092 42.4798ZM315.09 48.1748C313.969 50.3233 313.116 52.6389 312.521 55.1103L318.354 56.5147C318.843 54.4861 319.531 52.635 320.41 50.9502L315.09 48.1748ZM312.524 55.0978C311.957 57.4096 311.538 59.6518 311.272 61.8229L317.228 62.5521C317.462 60.6398 317.835 58.6321 318.351 56.5272L312.524 55.0978ZM311.266 61.8734L311.016 64.2484L316.984 64.8766L317.234 62.5016L311.266 61.8734ZM311.01 64.3184C310.825 66.579 310.893 68.792 311.222 70.9513L317.153 70.0487C316.899 68.3747 316.841 66.6294 316.99 64.8066L311.01 64.3184ZM311.222 70.9513C311.563 73.1961 312.256 75.2796 313.328 77.1683L318.547 74.2067C317.869 73.0121 317.395 71.6372 317.153 70.0487L311.222 70.9513ZM313.359 77.2207C314.524 79.1805 316.097 80.7765 318.041 81.9854L321.209 76.8896C320.07 76.1818 319.184 75.2778 318.516 74.1543L313.359 77.2207ZM318.092 82.0161C320.177 83.2561 322.641 83.8396 325.33 83.9356L325.545 77.9394C323.567 77.8688 322.156 77.4522 321.158 76.8589L318.092 82.0161ZM325.358 83.9364C328.921 84.0314 332.297 83.3639 335.445 81.9114L332.93 76.4636C330.661 77.5111 328.204 78.0102 325.517 77.9386L325.358 83.9364ZM335.445 81.9114C338.483 80.509 341.211 78.5938 343.621 76.1838L339.379 71.9412C337.455 73.8645 335.309 75.366 332.93 76.4636L335.445 81.9114ZM339.103 75.8667L347.666 87.2417L352.459 83.6333L343.897 72.2583L339.103 75.8667ZM347.561 83.7819C345.939 86.2321 343.857 88.2088 341.285 89.7304L344.34 94.8946C347.684 92.9162 350.436 90.3095 352.564 87.0931L347.561 83.7819ZM341.312 89.7146C338.618 91.2707 335.708 92.4134 332.573 93.1399L333.927 98.9851C337.625 98.1283 341.091 96.771 344.313 94.9104L341.312 89.7146ZM332.531 93.15C329.383 93.9271 326.347 94.2883 323.414 94.2503L323.336 100.25C326.82 100.295 330.367 99.8645 333.969 98.975L332.531 93.15ZM385.875 28.375L388.72 27.4234L388.035 25.375H385.875V28.375ZM392.062 46.875L389.217 47.8266L391.151 53.6078L394.552 48.5488L392.062 46.875ZM404.5 28.375V25.375H402.902L402.01 26.7012L404.5 28.375ZM426.75 28.375L429.232 30.0602L432.413 25.375H426.75V28.375ZM403.75 62.25L401.268 60.5648L400.404 61.838L400.933 63.2828L403.75 62.25ZM416.125 96V99H420.42L418.942 94.9672L416.125 96ZM395.562 96L392.736 97.0045L393.445 99H395.562V96ZM388.5 76.125L391.327 75.1205L389.323 69.4819L386.004 74.4609L388.5 76.125ZM375.25 96V99H376.856L377.746 97.6641L375.25 96ZM352.812 96L350.331 94.3149L347.15 99H352.812V96ZM377 60.375L379.482 62.0601L380.347 60.7863L379.816 59.3409L377 60.375ZM365.25 28.375V25.375H360.953L362.434 29.4091L365.25 28.375ZM383.03 29.3266L389.217 47.8266L394.908 45.9234L388.72 27.4234L383.03 29.3266ZM394.552 48.5488L406.99 30.0488L402.01 26.7012L389.573 45.2012L394.552 48.5488ZM404.5 31.375H426.75V25.375H404.5V31.375ZM424.268 26.6898L401.268 60.5648L406.232 63.9352L429.232 30.0602L424.268 26.6898ZM400.933 63.2828L413.308 97.0328L418.942 94.9672L406.567 61.2172L400.933 63.2828ZM416.125 93H395.562V99H416.125V93ZM398.389 94.9955L391.327 75.1205L385.673 77.1295L392.736 97.0045L398.389 94.9955ZM386.004 74.4609L372.754 94.3359L377.746 97.6641L390.996 77.7891L386.004 74.4609ZM375.25 93H352.812V99H375.25V93ZM355.294 97.6851L379.482 62.0601L374.518 58.6899L350.331 94.3149L355.294 97.6851ZM379.816 59.3409L368.066 27.3409L362.434 29.4091L374.184 61.4091L379.816 59.3409ZM365.25 31.375H385.875V25.375H365.25V31.375ZM451.688 42.5L454.643 43.0135L454.67 42.8571L454.681 42.6987L451.688 42.5ZM437.875 122V125H440.399L440.831 122.514L437.875 122ZM417.312 122L414.357 121.487L413.747 125H417.312V122ZM433.562 28.375V25.375H431.038L430.607 27.862L433.562 28.375ZM452.625 28.375L455.618 28.5737L455.831 25.375H452.625V28.375ZM488.562 61L491.532 61.4243L491.542 61.3584L491.548 61.2921L488.562 61ZM488.375 62.3125L485.405 61.8882L485.399 61.933L485.394 61.9779L488.375 62.3125ZM485.562 74.6875L482.722 73.7218L482.718 73.7346L482.714 73.7474L485.562 74.6875ZM479.875 86.125L477.416 84.4066L477.409 84.4166L477.402 84.4267L479.875 86.125ZM471 94.4375L472.498 97.0366L472.51 97.03L472.521 97.0233L471 94.4375ZM458.5 97.3125L458.411 100.311L458.422 100.311L458.5 97.3125ZM448.188 93.8125L446.253 96.1054L446.263 96.1143L446.274 96.1231L448.188 93.8125ZM441.938 85.3125L439.173 86.4782L439.182 86.4984L439.191 86.5185L441.938 85.3125ZM438.875 74.375L435.904 74.7903L435.906 74.8083L435.909 74.8263L438.875 74.375ZM438.188 63.5625L435.203 63.2538L435.191 63.3704L435.188 63.4875L438.188 63.5625ZM438.375 61.75L435.418 61.2459L435.401 61.3432L435.391 61.4413L438.375 61.75ZM447.25 38.75L449.732 40.4345L449.737 40.4277L449.742 40.4209L447.25 38.75ZM455.812 30.1875L457.447 32.7028L457.458 32.6957L457.469 32.6884L455.812 30.1875ZM467.438 27.0625L467.353 30.0613L467.356 30.0614L467.438 27.0625ZM478.812 30.375L477.085 32.8278L477.097 32.836L477.108 32.8441L478.812 30.375ZM485.562 38.4375L482.84 39.6968L482.843 39.7034L482.846 39.7099L485.562 38.4375ZM467.875 62.25L470.857 62.5813L470.859 62.5579L470.861 62.5344L467.875 62.25ZM468 60.9375L470.986 61.2219L470.988 61.2043L470.99 61.1866L468 60.9375ZM467.938 50L464.973 50.4611L464.978 50.4932L464.984 50.5251L467.938 50ZM465.875 45.3125L463.54 47.1958L463.573 47.2371L463.608 47.2773L465.875 45.3125ZM461.062 43.25L460.915 46.2464L460.931 46.2472L460.947 46.2478L461.062 43.25ZM454.688 44.4375L453.269 41.794L454.688 44.4375ZM450.5 48.25L448.004 46.5859L447.989 46.6083L447.974 46.631L450.5 48.25ZM448.062 53.75L450.943 54.59L450.945 54.5821L450.947 54.5742L448.062 53.75ZM446.812 59.9375L443.833 59.587L443.832 59.5986L443.83 59.6102L446.812 59.9375ZM446.25 65.0625L449.228 65.4282L449.23 65.409L449.232 65.3898L446.25 65.0625ZM446.062 72.3125L443.069 72.5154L443.07 72.5189L446.062 72.3125ZM448.188 78.4375L445.788 80.2375L445.802 80.2565L445.816 80.2752L448.188 78.4375ZM454.688 81.0625L454.605 84.0614L454.621 84.0618L454.636 84.0621L454.688 81.0625ZM460.688 79.3125L458.897 76.9051L458.882 76.9163L458.867 76.9276L460.688 79.3125ZM464.562 74.5625L461.891 73.1982L461.879 73.2209L461.868 73.2438L464.562 74.5625ZM466.812 68.375L469.736 69.0496L469.738 69.0375L466.812 68.375ZM448.732 41.9865L434.919 121.486L440.831 122.514L454.643 43.0135L448.732 41.9865ZM437.875 119H417.312V125H437.875V119ZM420.268 122.513L436.518 28.888L430.607 27.862L414.357 121.487L420.268 122.513ZM433.562 31.375H452.625V25.375H433.562V31.375ZM449.632 28.1763L448.694 42.3013L454.681 42.6987L455.618 28.5737L449.632 28.1763ZM485.593 60.5757L485.405 61.8882L491.345 62.7368L491.532 61.4243L485.593 60.5757ZM485.394 61.9779C484.961 65.8318 484.074 69.7454 482.722 73.7218L488.403 75.6532C489.884 71.2963 490.872 66.9599 491.356 62.6471L485.394 61.9779ZM482.714 73.7474C481.426 77.6482 479.659 81.1968 477.416 84.4066L482.334 87.8434C484.924 84.1365 486.949 80.0602 488.411 75.6276L482.714 73.7474ZM477.402 84.4267C475.27 87.5309 472.634 89.9957 469.479 91.8517L472.521 97.0233C476.449 94.7126 479.73 91.6357 482.348 87.8233L477.402 84.4267ZM469.502 91.8384C466.516 93.5596 462.914 94.4266 458.578 94.3135L458.422 100.311C463.669 100.448 468.401 99.3987 472.498 97.0366L469.502 91.8384ZM458.589 94.3138C454.9 94.2042 452.149 93.1983 450.101 91.5019L446.274 96.1231C449.559 98.8434 453.683 100.171 458.411 100.311L458.589 94.3138ZM450.122 91.5196C447.83 89.5854 446.013 87.1334 444.684 84.1065L439.191 86.5185C440.862 90.3249 443.212 93.5396 446.253 96.1054L450.122 91.5196ZM444.702 84.1468C443.343 80.9248 442.388 77.5196 441.841 73.9237L435.909 74.8263C436.529 78.897 437.615 82.7835 439.173 86.4782L444.702 84.1468ZM441.846 73.9597C441.323 70.22 441.108 66.7816 441.187 63.6375L435.188 63.4875C435.1 67.01 435.343 70.78 435.904 74.7903L441.846 73.9597ZM441.172 63.8712L441.359 62.0587L435.391 61.4413L435.203 63.2538L441.172 63.8712ZM441.332 62.2541C441.924 58.7847 442.916 55.0794 444.325 51.134L438.675 49.116C437.167 53.3372 436.076 57.382 435.418 61.2459L441.332 62.2541ZM444.325 51.134C445.7 47.2834 447.503 43.7195 449.732 40.4345L444.768 37.0655C442.247 40.7805 440.216 44.7999 438.675 49.116L444.325 51.134ZM449.742 40.4209C451.908 37.1909 454.478 34.6331 457.447 32.7028L454.178 27.6722C450.48 30.0753 447.342 33.2258 444.758 37.0791L449.742 40.4209ZM457.469 32.6884C460.233 30.8573 463.486 29.9519 467.353 30.0613L467.522 24.0637C462.556 23.9231 458.058 25.1011 454.156 27.6866L457.469 32.6884ZM467.356 30.0614C471.554 30.1749 474.728 31.168 477.085 32.8278L480.54 27.9222C476.98 25.4153 472.571 24.2001 467.519 24.0636L467.356 30.0614ZM477.108 32.8441C479.615 34.574 481.518 36.8395 482.84 39.6968L488.285 37.1782C486.524 33.3688 483.927 30.2593 480.517 27.9059L477.108 32.8441ZM482.846 39.7099C484.233 42.6718 485.131 45.9688 485.516 49.6266L491.484 48.9984C491.035 44.7395 489.975 40.7865 488.279 37.1651L482.846 39.7099ZM485.516 49.6266C485.913 53.3902 485.931 57.0828 485.577 60.7079L491.548 61.2921C491.944 57.2505 491.921 53.1515 491.484 48.9984L485.516 49.6266ZM470.861 62.5344L470.986 61.2219L465.014 60.6531L464.889 61.9656L470.861 62.5344ZM470.99 61.1866C471.119 59.6362 471.225 57.8651 471.31 55.8775L465.315 55.6225C465.233 57.5516 465.131 59.2388 465.01 60.6884L470.99 61.1866ZM471.31 55.8775C471.402 53.7071 471.264 51.5714 470.891 49.4749L464.984 50.5251C465.278 52.1786 465.39 53.8762 465.315 55.6225L471.31 55.8775ZM470.902 49.5389C470.537 47.1909 469.646 45.0833 468.142 43.3477L463.608 47.2773C464.27 48.0417 464.755 49.0591 464.973 50.4611L470.902 49.5389ZM468.21 43.4292C466.469 41.27 463.928 40.358 461.178 40.2522L460.947 46.2478C462.53 46.3087 463.198 46.7716 463.54 47.1958L468.21 43.4292ZM461.21 40.2536C458.29 40.11 455.585 40.5511 453.269 41.794L456.106 47.081C457.206 46.4906 458.752 46.14 460.915 46.2464L461.21 40.2536ZM453.269 41.794C451.123 42.9455 449.358 44.554 448.004 46.5859L452.996 49.9141C453.808 48.696 454.835 47.7629 456.106 47.081L453.269 41.794ZM447.974 46.631C446.76 48.5253 445.834 50.631 445.178 52.9258L450.947 54.5742C451.458 52.7857 452.157 51.2247 453.026 49.869L447.974 46.631ZM445.182 52.91C444.551 55.0744 444.102 57.3008 443.833 59.587L449.792 60.288C450.023 58.3242 450.407 56.4256 450.943 54.59L445.182 52.91ZM443.83 59.6102L443.268 64.7352L449.232 65.3898L449.795 60.2648L443.83 59.6102ZM443.272 64.6968C442.957 67.266 442.89 69.8731 443.069 72.5154L449.056 72.1096C448.901 69.8352 448.96 67.609 449.228 65.4282L443.272 64.6968ZM443.07 72.5189C443.269 75.4168 444.137 78.0365 445.788 80.2375L450.587 76.6375C449.738 75.5051 449.189 74.0415 449.055 72.1061L443.07 72.5189ZM445.816 80.2752C447.869 82.9243 451.078 83.9647 454.605 84.0614L454.77 78.0636C452.214 77.9936 451.089 77.284 450.559 76.5998L445.816 80.2752ZM454.636 84.0621C457.579 84.1128 460.28 83.3974 462.508 81.6974L458.867 76.9276C457.928 77.6443 456.629 78.0955 454.739 78.0629L454.636 84.0621ZM462.478 81.7199C464.516 80.2044 466.105 78.2356 467.257 75.8812L461.868 73.2438C461.103 74.8061 460.109 76.004 458.897 76.9051L462.478 81.7199ZM467.234 75.9268C468.347 73.7473 469.181 71.4529 469.736 69.0496L463.889 67.7004C463.444 69.6305 462.778 71.4611 461.891 73.1982L467.234 75.9268ZM469.738 69.0375C470.258 66.7407 470.634 64.587 470.857 62.5813L464.893 61.9187C464.7 63.663 464.367 65.5926 463.887 67.7125L469.738 69.0375ZM529.875 0L532.831 0.511911L533.439 -3H529.875V0ZM513.25 96V99H515.775L516.206 96.5119L513.25 96ZM492.625 96L489.669 95.4881L489.061 99H492.625V96ZM509.25 0V-3H506.725L506.294 -0.511911L509.25 0ZM526.919 -0.511911L510.294 95.4881L516.206 96.5119L532.831 0.511911L526.919 -0.511911ZM513.25 93H492.625V99H513.25V93ZM495.581 96.5119L512.206 0.511911L506.294 -0.511911L489.669 95.4881L495.581 96.5119ZM509.25 3H529.875V-3H509.25V3ZM529 63.25L526.013 62.9656L526.013 62.9732L526.012 62.9808L529 63.25ZM529.125 61.9375L526.143 61.6062L526.141 61.6296L526.138 61.6531L529.125 61.9375ZM532.688 48.25L529.933 47.0617L532.688 48.25ZM540 37.0625L537.837 34.9837L537.83 34.9911L537.823 34.9985L540 37.0625ZM550.875 29.625L552.037 32.3909L552.048 32.386L552.06 32.381L550.875 29.625ZM564.875 27.125L564.802 30.1241L564.814 30.1244L564.825 30.1246L564.875 27.125ZM586.688 37.5L584.272 39.2796L584.278 39.2873L584.284 39.2949L586.688 37.5ZM591.625 48.375L588.703 49.0539L588.707 49.0713L588.711 49.0886L591.625 48.375ZM592.5 61.4375L595.488 61.7091L595.488 61.7067L592.5 61.4375ZM592.375 62.8125L595.356 63.1466L595.36 63.1154L595.363 63.0841L592.375 62.8125ZM581.312 87.4375L579.163 85.3447L579.156 85.352L579.149 85.3593L581.312 87.4375ZM556.562 97.25L556.636 94.2509L556.625 94.2506L556.614 94.2504L556.562 97.25ZM543.75 94.4375L542.396 97.1146L542.414 97.1239L542.433 97.1329L543.75 94.4375ZM534.812 87.0625L532.409 88.8574L532.414 88.8651L532.42 88.8728L534.812 87.0625ZM529.812 76.3125L526.892 76.998L526.896 77.0155L526.9 77.033L529.812 76.3125ZM549.688 61.9375L546.704 61.6267L546.702 61.6399L546.701 61.6531L549.688 61.9375ZM549.562 63.25L546.576 62.9656L546.573 62.9983L546.57 63.0311L549.562 63.25ZM549.312 68.875L546.313 68.8138L546.312 68.8444V68.875H549.312ZM550 74.6875L547.086 75.3999L547.088 75.4075L547.09 75.4151L550 74.6875ZM552.5 79.25L550.379 81.3713L550.415 81.4079L550.453 81.4432L552.5 79.25ZM557.875 81.125L557.768 84.1231L557.775 84.1233L557.875 81.125ZM564.125 79.5625L562.475 77.057L562.461 77.0664L562.447 77.076L564.125 79.5625ZM570.625 69L567.728 68.2201L567.721 68.2462L567.715 68.2724L570.625 69ZM571.812 62.75L574.796 63.0608L574.798 63.0476L574.799 63.0344L571.812 62.75ZM571.938 61.4375L574.924 61.7219L574.927 61.6919L574.929 61.6619L571.938 61.4375ZM572.125 55.875L569.126 55.815L569.125 55.845V55.875H572.125ZM568.938 45.3125L566.816 47.4338L566.834 47.4518L566.852 47.4695L568.938 45.3125ZM563.562 43.3125L563.67 40.3144L563.662 40.3142L563.562 43.3125ZM557.25 44.9375L555.558 42.4601L555.544 42.4699L555.53 42.4798L557.25 44.9375ZM553.188 49.5625L555.81 51.0194L555.817 51.0073L555.823 50.995L553.188 49.5625ZM550.812 55.6875L553.723 56.4151L553.726 56.4022L550.812 55.6875ZM531.987 63.5344L532.112 62.2219L526.138 61.6531L526.013 62.9656L531.987 63.5344ZM532.107 62.2688C532.617 57.6715 533.733 53.3996 535.442 49.4383L529.933 47.0617C527.975 51.6004 526.716 56.4535 526.143 61.6062L532.107 62.2688ZM535.442 49.4383C537.143 45.4965 539.389 42.0673 542.177 39.1265L537.823 34.9985C534.528 38.4744 531.899 42.5035 529.933 47.0617L535.442 49.4383ZM542.163 39.1413C544.958 36.2326 548.241 33.9851 552.037 32.3909L549.713 26.8591C545.176 28.7649 541.208 31.4758 537.837 34.9837L542.163 39.1413ZM552.06 32.381C555.778 30.7823 560.007 30.0081 564.802 30.1241L564.948 24.1259C559.409 23.9919 554.305 24.8844 549.69 26.869L552.06 32.381ZM564.825 30.1246C569.428 30.2019 573.255 31.0885 576.396 32.6771L579.104 27.3229C574.995 25.2448 570.239 24.2147 564.925 24.1254L564.825 30.1246ZM576.396 32.6771C579.616 34.3056 582.227 36.5036 584.272 39.2796L589.103 35.7204C586.481 32.163 583.134 29.361 579.104 27.3229L576.396 32.6771ZM584.284 39.2949C586.348 42.06 587.83 45.2977 588.703 49.0539L594.547 47.6961C593.503 43.2023 591.693 39.19 589.091 35.7051L584.284 39.2949ZM588.711 49.0886C589.625 52.8189 589.902 56.8385 589.512 61.1683L595.488 61.7067C595.931 56.7865 595.625 52.0978 594.539 47.6614L588.711 49.0886ZM589.512 61.1659L589.387 62.5409L595.363 63.0841L595.488 61.7091L589.512 61.1659ZM589.394 62.4784C588.884 67.0226 587.752 71.2425 586.01 75.1541L591.49 77.5959C593.498 73.0908 594.782 68.2691 595.356 63.1466L589.394 62.4784ZM586.01 75.1541C584.273 79.0531 581.989 82.4422 579.163 85.3447L583.462 89.5303C586.802 86.0995 589.477 82.1136 591.49 77.5959L586.01 75.1541ZM579.149 85.3593C576.399 88.2221 573.139 90.4503 569.338 92.0466L571.662 97.5784C576.194 95.6747 580.143 92.9863 583.476 89.5157L579.149 85.3593ZM569.338 92.0466C565.611 93.6118 561.394 94.367 556.636 94.2509L556.489 100.249C561.981 100.383 567.055 99.5132 571.662 97.5784L569.338 92.0466ZM556.614 94.2504C552.094 94.1732 548.27 93.307 545.067 91.7421L542.433 97.1329C546.564 99.1513 551.281 100.16 556.511 100.25L556.614 94.2504ZM545.104 91.7604C541.865 90.1225 539.248 87.9529 537.205 85.2522L532.42 88.8728C535.043 92.3388 538.385 95.0858 542.396 97.1146L545.104 91.7604ZM537.216 85.2676C535.138 82.4845 533.635 79.2718 532.725 75.592L526.9 77.033C527.99 81.4365 529.82 85.3905 532.409 88.8574L537.216 85.2676ZM532.733 75.627C531.856 71.8879 531.597 67.8584 531.988 63.5192L526.012 62.9808C525.57 67.8916 525.853 72.5705 526.892 76.998L532.733 75.627ZM546.701 61.6531L546.576 62.9656L552.549 63.5344L552.674 62.2219L546.701 61.6531ZM546.57 63.0311C546.441 64.8007 546.356 66.7291 546.313 68.8138L552.312 68.9362C552.353 66.9375 552.434 65.116 552.555 63.4689L546.57 63.0311ZM546.312 68.875C546.312 71.1063 546.568 73.2834 547.086 75.3999L552.914 73.9751C552.515 72.3416 552.312 70.6437 552.312 68.875H546.312ZM547.09 75.4151C547.665 77.7185 548.746 79.7387 550.379 81.3713L554.621 77.1287C553.837 76.3447 553.251 75.3232 552.91 73.9599L547.09 75.4151ZM550.453 81.4432C552.398 83.2581 554.977 84.0234 557.768 84.1231L557.982 78.1269C556.106 78.0599 555.102 77.5752 554.547 77.0568L550.453 81.4432ZM557.775 84.1233C560.751 84.2225 563.497 83.6061 565.803 82.049L562.447 77.076C561.42 77.7689 559.999 78.1941 557.975 78.1267L557.775 84.1233ZM565.775 82.068C567.907 80.664 569.608 78.796 570.872 76.5194L565.628 73.6056C564.809 75.079 563.76 76.211 562.475 77.057L565.775 82.068ZM570.872 76.5194C572.047 74.4057 572.933 72.1384 573.535 69.7276L567.715 68.2724C567.234 70.1949 566.537 71.9693 565.628 73.6056L570.872 76.5194ZM573.522 69.7799C574.142 67.4768 574.57 65.2362 574.796 63.0608L568.829 62.4392C568.639 64.2638 568.275 66.1898 567.728 68.2201L573.522 69.7799ZM574.799 63.0344L574.924 61.7219L568.951 61.1531L568.826 62.4656L574.799 63.0344ZM574.929 61.6619C575.061 59.9064 575.125 57.9758 575.125 55.875H569.125C569.125 57.8575 569.064 59.6353 568.946 61.2131L574.929 61.6619ZM575.124 55.935C575.171 53.6121 574.939 51.372 574.414 49.2251L568.586 50.6499C568.978 52.253 569.162 53.9712 569.126 55.815L575.124 55.935ZM574.414 49.2251C573.837 46.8626 572.724 44.8 571.023 43.1555L566.852 47.4695C567.651 48.2416 568.247 49.2624 568.586 50.6499L574.414 49.2251ZM571.059 43.1912C569.119 41.2511 566.512 40.4159 563.67 40.3144L563.455 46.3106C565.28 46.3758 566.256 46.8739 566.816 47.4338L571.059 43.1912ZM563.662 40.3142C560.661 40.2141 557.896 40.8637 555.558 42.4601L558.942 47.4149C560.021 46.678 561.464 46.2442 563.463 46.3108L563.662 40.3142ZM555.53 42.4798C553.455 43.9317 551.799 45.8355 550.552 48.13L555.823 50.995C556.66 49.4562 557.711 48.2766 558.97 47.3952L555.53 42.4798ZM550.565 48.1056C549.386 50.2275 548.5 52.5208 547.899 54.9728L553.726 56.4022C554.208 54.4376 554.906 52.6475 555.81 51.0194L550.565 48.1056ZM547.902 54.9599C547.33 57.2488 546.928 59.4718 546.704 61.6267L552.671 62.2483C552.864 60.4032 553.212 58.4595 553.723 56.4151L547.902 54.9599ZM624.75 46.25L627.706 46.7625L627.726 46.6478L627.737 46.532L624.75 46.25ZM616.125 96V99H618.65L619.081 96.5125L616.125 96ZM595.562 96L592.607 95.4864L591.996 99H595.562V96ZM607.312 28.375V25.375H604.789L604.357 27.8614L607.312 28.375ZM626.438 28.375L629.424 28.657L629.734 25.375H626.438V28.375ZM646.875 27.8125L649.847 28.2195L650.219 25.5053L647.55 24.8893L646.875 27.8125ZM644.188 47.4375L643.731 50.4026L646.746 50.8664L647.16 47.8445L644.188 47.4375ZM637.625 46.75L637.736 43.7521L637.708 43.751L637.68 43.7505L637.625 46.75ZM631.375 47.5625L632.225 50.4396L632.246 50.4335L632.266 50.4271L631.375 47.5625ZM626.562 50.125L628.497 52.4179L628.503 52.4125L626.562 50.125ZM621.312 60.3125L619.548 62.7387L623.396 65.5372L624.262 60.8588L621.312 60.3125ZM617.875 57.8125L614.901 57.4211L614.668 59.1896L616.11 60.2387L617.875 57.8125ZM619.875 47.75L616.977 46.9749L616.974 46.9866L616.971 46.9983L619.875 47.75ZM630.5 29.9375L632.258 32.3685L632.27 32.3597L632.282 32.3508L630.5 29.9375ZM621.794 45.7375L613.169 95.4875L619.081 96.5125L627.706 46.7625L621.794 45.7375ZM616.125 93H595.562V99H616.125V93ZM598.518 96.5136L610.268 28.8886L604.357 27.8614L592.607 95.4864L598.518 96.5136ZM607.312 31.375H626.438V25.375H607.312V31.375ZM623.451 28.093L621.763 45.968L627.737 46.532L629.424 28.657L623.451 28.093ZM643.903 27.4055L641.215 47.0305L647.16 47.8445L649.847 28.2195L643.903 27.4055ZM644.644 44.4724C643.523 44.3 642.402 44.1491 641.281 44.0198L640.594 49.9802C641.639 50.1009 642.685 50.2417 643.731 50.4026L644.644 44.4724ZM641.281 44.0198C640.118 43.8856 638.936 43.7965 637.736 43.7521L637.514 49.7479C638.564 49.7868 639.59 49.8644 640.594 49.9802L641.281 44.0198ZM637.68 43.7505C635.12 43.704 632.711 44.005 630.484 44.6979L632.266 50.4271C633.789 49.9533 635.547 49.7127 637.57 49.7495L637.68 43.7505ZM630.525 44.6854C628.315 45.3383 626.334 46.3844 624.622 47.8375L628.503 52.4125C629.541 51.5323 630.768 50.8701 632.225 50.4396L630.525 44.6854ZM624.628 47.8321C622.961 49.2383 621.618 50.9805 620.58 53.0074L625.92 55.7426C626.632 54.3528 627.497 53.2617 628.497 52.4179L624.628 47.8321ZM620.58 53.0074C619.55 55.0186 618.822 57.2835 618.363 59.7662L624.262 60.8588C624.636 58.8415 625.2 57.1481 625.92 55.7426L620.58 53.0074ZM623.077 57.8863L619.64 55.3863L616.11 60.2387L619.548 62.7387L623.077 57.8863ZM620.849 58.2039C621.248 55.1746 621.889 51.9415 622.779 48.5017L616.971 46.9983C616.028 50.6419 615.335 54.1171 614.901 57.4211L620.849 58.2039ZM622.773 48.5251C623.673 45.1605 624.921 42.0041 626.515 39.0494L621.235 36.2006C619.412 39.5792 617.994 43.1728 616.977 46.9749L622.773 48.5251ZM626.515 39.0494C628.026 36.2494 629.943 34.0422 632.258 32.3685L628.742 27.5065C625.64 29.7495 623.141 32.6673 621.235 36.2006L626.515 39.0494ZM632.282 32.3508C634.388 30.7957 637.067 29.9375 640.5 29.9375V23.9375C636.017 23.9375 632.029 25.0793 628.718 27.5242L632.282 32.3508ZM640.5 29.9375C641.429 29.9375 642.333 30.0089 643.214 30.1498L644.161 24.2252C642.959 24.0328 641.738 23.9375 640.5 23.9375V29.9375ZM643.214 30.1498C644.184 30.3052 645.18 30.5002 646.2 30.7357L647.55 24.8893C646.403 24.6248 645.274 24.4032 644.161 24.2252L643.214 30.1498ZM674.75 97.25L674.696 100.25L674.704 100.25L674.711 100.25L674.75 97.25ZM662 94.6875L660.804 97.4387L660.816 97.4442L660.829 97.4496L662 94.6875ZM646.312 77.5625L643.452 78.4659L643.457 78.484L643.463 78.5021L646.312 77.5625ZM644.938 64.625L641.953 64.3189L641.948 64.365L641.945 64.4113L644.938 64.625ZM645.188 62.1875L648.172 62.4936L648.172 62.491L645.188 62.1875ZM648.688 48.4375L651.442 49.6258L651.446 49.616L648.688 48.4375ZM656.062 37.1875L658.226 39.2663L658.232 39.2593L658.239 39.2523L656.062 37.1875ZM666.938 29.625L665.762 26.8647L665.752 26.869L666.938 29.625ZM681.062 27.125L680.991 30.1241L681 30.1244L681.009 30.1245L681.062 27.125ZM693.25 29.9375L691.857 32.5944L691.863 32.5978L691.87 32.6012L693.25 29.9375ZM701.688 37.25L699.233 38.9748L699.238 38.9827L699.244 38.9905L701.688 37.25ZM706.188 47.75L703.252 48.368L703.256 48.3861L703.26 48.4041L706.188 47.75ZM706.812 60.25L709.784 60.6621L709.791 60.611L709.796 60.5597L706.812 60.25ZM705.625 68.8125V71.8125H708.238L708.597 69.2246L705.625 68.8125ZM651.875 68.8125L648.913 68.3352L648.353 71.8125H651.875V68.8125ZM654 55.625L654.006 52.625L651.445 52.6202L651.038 55.1477L654 55.625ZM687.125 55.6875L687.119 58.6875L689.567 58.6921L690.063 56.2953L687.125 55.6875ZM687.5 53.875L690.438 54.4828L690.455 54.4003L690.467 54.3169L687.5 53.875ZM684.688 44.8125L682.862 47.1933L682.888 47.2128L682.913 47.2317L684.688 44.8125ZM679.625 43.25L679.743 40.2523L679.708 40.2509L679.673 40.2504L679.625 43.25ZM673.188 44.9375L671.496 42.4601L671.481 42.4699L671.467 42.4798L673.188 44.9375ZM669.125 49.5625L666.489 48.13L666.477 48.1523L666.465 48.1748L669.125 49.5625ZM666.812 55.8125L669.726 56.5272L669.729 56.5147L666.812 55.8125ZM665.625 62.1875L662.647 61.8229L662.644 61.8481L662.641 61.8734L665.625 62.1875ZM665.375 64.5625L662.391 64.2484L662.388 64.2834L662.385 64.3184L665.375 64.5625ZM667.312 75.6875L664.703 77.1683L664.718 77.1947L664.734 77.2207L667.312 75.6875ZM671 79.4375L669.416 81.9854L669.441 82.001L669.467 82.0161L671 79.4375ZM676.812 80.9375L676.705 83.9356L676.719 83.9361L676.733 83.9364L676.812 80.9375ZM692.875 74.0625L695.272 72.2583L693.195 69.4996L690.754 71.9412L692.875 74.0625ZM701.438 85.4375L703.939 87.0931L705.109 85.3261L703.834 83.6333L701.438 85.4375ZM694.188 92.3125L695.688 94.9104L695.701 94.9026L695.715 94.8946L694.188 92.3125ZM684.625 96.0625L683.948 93.1399L683.927 93.1448L683.906 93.15L684.625 96.0625ZM674.804 94.2505C670.475 94.1732 666.61 93.3834 663.171 91.9254L660.829 97.4496C665.057 99.2416 669.692 100.16 674.696 100.25L674.804 94.2505ZM663.196 91.9363C659.727 90.4278 656.83 88.3759 654.464 85.7882L650.036 89.8368C653.003 93.0824 656.607 95.6138 660.804 97.4387L663.196 91.9363ZM654.464 85.7882C652.096 83.1979 650.326 80.1552 649.162 76.6229L643.463 78.5021C644.882 82.8032 647.071 86.5938 650.036 89.8368L654.464 85.7882ZM649.173 76.6591C648.051 73.1045 647.62 69.1758 647.93 64.8387L641.945 64.4113C641.588 69.4076 642.074 74.1039 643.452 78.4659L649.173 76.6591ZM647.922 64.9311L648.172 62.4936L642.203 61.8814L641.953 64.3189L647.922 64.9311ZM648.172 62.491C648.643 57.8586 649.738 53.5759 651.442 49.6258L645.933 47.2492C643.97 51.7991 642.732 56.683 642.203 61.884L648.172 62.491ZM651.446 49.616C653.144 45.6415 655.406 42.2004 658.226 39.2663L653.899 35.1087C650.553 38.5913 647.898 42.6502 645.929 47.259L651.446 49.616ZM658.239 39.2523C661.039 36.3013 664.325 34.014 668.123 32.381L665.752 26.869C661.217 28.8194 657.253 31.5737 653.886 35.1227L658.239 39.2523ZM668.113 32.3853C671.876 30.7831 676.151 30.008 680.991 30.1241L681.134 24.1259C675.558 23.992 670.416 24.8835 665.762 26.8647L668.113 32.3853ZM681.009 30.1245C685.352 30.2014 688.935 31.0624 691.857 32.5944L694.643 27.2806C690.731 25.2292 686.19 24.2153 681.116 24.1255L681.009 30.1245ZM691.87 32.6012C694.915 34.1786 697.353 36.2998 699.233 38.9748L704.142 35.5252C701.688 32.0335 698.502 29.2797 694.63 27.2738L691.87 32.6012ZM699.244 38.9905C701.152 41.6687 702.496 44.7798 703.252 48.368L709.123 47.132C708.212 42.8036 706.557 38.9146 704.131 35.5095L699.244 38.9905ZM703.26 48.4041C704.057 51.9729 704.257 55.8118 703.829 59.9403L709.796 60.5597C710.285 55.8549 710.068 51.3605 709.115 47.0959L703.26 48.4041ZM703.841 59.8379L702.653 68.4004L708.597 69.2246L709.784 60.6621L703.841 59.8379ZM705.625 65.8125H651.875V71.8125H705.625V65.8125ZM654.837 69.2898L656.962 56.1023L651.038 55.1477L648.913 68.3352L654.837 69.2898ZM653.994 58.625L687.119 58.6875L687.131 52.6875L654.006 52.625L653.994 58.625ZM690.063 56.2953L690.438 54.4828L684.562 53.2672L684.187 55.0797L690.063 56.2953ZM690.467 54.3169C690.81 52.0164 690.732 49.8008 690.132 47.7283L684.368 49.3967C684.685 50.4909 684.773 51.8169 684.533 53.4331L690.467 54.3169ZM690.132 47.7283C689.502 45.552 688.281 43.7273 686.462 42.3933L682.913 47.2317C683.594 47.731 684.082 48.4064 684.368 49.3967L690.132 47.7283ZM686.513 42.4317C684.625 40.9846 682.274 40.3516 679.743 40.2523L679.507 46.2477C681.226 46.3151 682.25 46.7238 682.862 47.1933L686.513 42.4317ZM679.673 40.2504C676.626 40.2012 673.831 40.8651 671.496 42.4601L674.879 47.4149C675.96 46.6766 677.458 46.2154 679.577 46.2496L679.673 40.2504ZM671.467 42.4798C669.393 43.9317 667.736 45.8355 666.489 48.13L671.761 50.995C672.597 49.4562 673.649 48.2766 674.908 47.3952L671.467 42.4798ZM666.465 48.1748C665.344 50.3233 664.491 52.6389 663.896 55.1103L669.729 56.5147C670.218 54.4861 670.906 52.635 671.785 50.9502L666.465 48.1748ZM663.899 55.0978C663.332 57.4096 662.913 59.6518 662.647 61.8229L668.603 62.5521C668.837 60.6398 669.21 58.6321 669.726 56.5272L663.899 55.0978ZM662.641 61.8734L662.391 64.2484L668.359 64.8766L668.609 62.5016L662.641 61.8734ZM662.385 64.3184C662.2 66.579 662.268 68.792 662.597 70.9513L668.528 70.0487C668.274 68.3747 668.216 66.6294 668.365 64.8066L662.385 64.3184ZM662.597 70.9513C662.938 73.1961 663.631 75.2796 664.703 77.1683L669.922 74.2067C669.244 73.0121 668.77 71.6372 668.528 70.0487L662.597 70.9513ZM664.734 77.2207C665.899 79.1805 667.472 80.7765 669.416 81.9854L672.584 76.8896C671.445 76.1818 670.559 75.2778 669.891 74.1543L664.734 77.2207ZM669.467 82.0161C671.552 83.2561 674.016 83.8396 676.705 83.9356L676.92 77.9394C674.942 77.8688 673.531 77.4522 672.533 76.8589L669.467 82.0161ZM676.733 83.9364C680.296 84.0314 683.672 83.3639 686.82 81.9114L684.305 76.4636C682.036 77.5111 679.579 78.0102 676.892 77.9386L676.733 83.9364ZM686.82 81.9114C689.858 80.509 692.586 78.5938 694.996 76.1838L690.754 71.9412C688.83 73.8645 686.684 75.366 684.305 76.4636L686.82 81.9114ZM690.478 75.8667L699.041 87.2417L703.834 83.6333L695.272 72.2583L690.478 75.8667ZM698.936 83.7819C697.314 86.2321 695.232 88.2088 692.66 89.7304L695.715 94.8946C699.059 92.9162 701.811 90.3095 703.939 87.0931L698.936 83.7819ZM692.687 89.7146C689.993 91.2707 687.083 92.4134 683.948 93.1399L685.302 98.9851C689 98.1283 692.466 96.771 695.688 94.9104L692.687 89.7146ZM683.906 93.15C680.758 93.9271 677.722 94.2883 674.789 94.2503L674.711 100.25C678.195 100.295 681.742 99.8645 685.344 98.975L683.906 93.15Z" fill="#F5C518"/>
</svg>
