<svg width="20" height="21" viewBox="0 0 20 21" fill="none" xmlns="http://www.w3.org/2000/svg">
<path d="M16 16.35C16.5304 16.35 17.0391 16.5607 17.4142 16.9358C17.7893 17.3108 18 17.8195 18 18.35C18 18.8804 17.7893 19.3891 17.4142 19.7642C17.0391 20.1393 16.5304 20.35 16 20.35C14.89 20.35 14 19.45 14 18.35C14 17.24 14.89 16.35 16 16.35ZM0 0.349976H3.27L4.21 2.34998H19C19.2652 2.34998 19.5196 2.45533 19.7071 2.64287C19.8946 2.83041 20 3.08476 20 3.34998C20 3.51998 19.95 3.68998 19.88 3.84998L16.3 10.32C15.96 10.93 15.3 11.35 14.55 11.35H7.1L6.2 12.98L6.17 13.1C6.17 13.1663 6.19634 13.2299 6.24322 13.2768C6.29011 13.3236 6.3537 13.35 6.42 13.35H18V15.35H6C4.89 15.35 4 14.45 4 13.35C4 13 4.09 12.67 4.24 12.39L5.6 9.93998L2 2.34998H0V0.349976ZM6 16.35C6.53043 16.35 7.03914 16.5607 7.41421 16.9358C7.78929 17.3108 8 17.8195 8 18.35C8 18.8804 7.78929 19.3891 7.41421 19.7642C7.03914 20.1393 6.53043 20.35 6 20.35C4.89 20.35 4 19.45 4 18.35C4 17.24 4.89 16.35 6 16.35ZM15 9.34998L17.78 4.34998H5.14L7.5 9.34998H15Z" fill="#F5C518"/>
</svg>
