<svg width="20" height="21" viewBox="0 0 20 21" fill="none" xmlns="http://www.w3.org/2000/svg">
<path d="M10 0C4.486 0 0 4.262 0 9.5C0 12.045 1.088 14.4875 3 16.2715V20.6172L7.08008 18.5781C8.03908 18.8571 9.02 19 10 19C15.514 19 20 14.738 20 9.5C20 4.262 15.514 0 10 0ZM10 2C14.411 2 18 5.365 18 9.5C18 13.635 14.411 17 10 17C9.211 17 8.41567 16.8842 7.63867 16.6582L6.88672 16.4395L6.18555 16.7891L5 17.3828V16.2715V15.4023L4.36328 14.8105C2.86128 13.4085 2 11.472 2 9.5C2 5.365 5.589 2 10 2ZM9 7L4 12L8.5 10L11 12L16 7L11.5 9L9 7Z" fill="#F5C518"/>
</svg>
