<svg width="8" height="17" viewBox="0 0 8 17" fill="none" xmlns="http://www.w3.org/2000/svg">
<path d="M5.71326 0.349976C5.31544 0.349976 4.93391 0.508011 4.6526 0.789315C4.3713 1.07062 4.21326 1.45215 4.21326 1.84998C4.21326 2.2478 4.3713 2.62933 4.6526 2.91064C4.93391 3.19194 5.31544 3.34998 5.71326 3.34998C6.11109 3.34998 6.49262 3.19194 6.77392 2.91064C7.05523 2.62933 7.21326 2.2478 7.21326 1.84998C7.21326 1.45215 7.05523 1.07062 6.77392 0.789315C6.49262 0.508011 6.11109 0.349976 5.71326 0.349976ZM5.35326 5.11998C4.16326 5.21998 0.913261 7.80998 0.913261 7.80998C0.713261 7.95998 0.773262 7.94998 0.933262 8.22998C1.09326 8.49998 1.07326 8.51998 1.26326 8.38998C1.46326 8.25998 1.79326 8.04998 2.34326 7.70998C4.46326 6.34998 2.68326 9.48998 1.77326 14.78C1.41326 17.4 3.77326 16.05 4.38326 15.65C4.98326 15.26 6.59326 14.15 6.75326 14.04C6.97326 13.89 6.81326 13.77 6.64326 13.52C6.52326 13.35 6.40326 13.47 6.40326 13.47C5.75326 13.9 4.56326 14.8 4.40326 14.23C4.21326 13.66 5.43326 9.74998 6.10326 7.05998C6.21326 6.41998 6.51326 5.01998 5.35326 5.11998Z" fill="#F5C518"/>
</svg>
