<svg width="16" height="16" viewBox="0 0 16 16" fill="none" xmlns="http://www.w3.org/2000/svg">
<path d="M16 12.8V16H12.8V13.6H10.4V11.2H8L6.192 9.392C5.752 9.528 5.288 9.6 4.8 9.6C3.52696 9.6 2.30606 9.09429 1.40589 8.19411C0.505713 7.29394 0 6.07304 0 4.8C0 3.52696 0.505713 2.30606 1.40589 1.40589C2.30606 0.505713 3.52696 0 4.8 0C6.07304 0 7.29394 0.505713 8.19411 1.40589C9.09429 2.30606 9.6 3.52696 9.6 4.8C9.6 5.288 9.528 5.752 9.392 6.192L16 12.8ZM4 2.4C3.57565 2.4 3.16869 2.56857 2.86863 2.86863C2.56857 3.16869 2.4 3.57565 2.4 4C2.4 4.42435 2.56857 4.83131 2.86863 5.13137C3.16869 5.43143 3.57565 5.6 4 5.6C4.42435 5.6 4.83131 5.43143 5.13137 5.13137C5.43143 4.83131 5.6 4.42435 5.6 4C5.6 3.57565 5.43143 3.16869 5.13137 2.86863C4.83131 2.56857 4.42435 2.4 4 2.4Z" fill="#F5C518"/>
</svg>
