<svg width="26" height="20" viewBox="0 0 26 20" fill="none" xmlns="http://www.w3.org/2000/svg">
<path d="M9.74165 0C11.5269 0.336352 14.1401 1.12549 15.5631 1.5912C19.1207 2.82018 20.3367 4.3467 20.3367 7.78784C20.3367 11.1514 18.2669 12.4191 15.6278 11.1514V4.89004C15.6278 4.17853 15.4984 3.49289 14.7999 3.29884C14.2695 3.13066 13.959 3.62225 13.959 4.3467V20L9.74165 18.6546V0ZM14.7481 17.2704L21.5398 14.8512C22.316 14.5796 22.4325 14.1915 21.8115 13.9845C21.1776 13.7775 20.0521 13.8422 19.2759 14.1138L14.7481 15.705V13.1695L15.0198 13.0789C15.0198 13.0789 16.3264 12.5873 18.1504 12.4191C20.0004 12.2122 22.2514 12.445 24.0107 13.1048C26.003 13.7387 26.2358 14.6701 25.7313 15.304C25.2138 15.9508 23.9719 16.4036 23.9719 16.4036L14.7481 19.7025V17.2704ZM1.97968 17.0116C-0.0513667 16.4683 -0.400655 15.2393 0.530781 14.5278C1.39753 13.881 2.85937 13.4282 2.85937 13.4282L8.9137 11.2937V13.7257L4.567 15.2911C3.79081 15.5627 3.67438 15.9508 4.29533 16.1578C4.91629 16.3648 6.05471 16.3131 6.81797 16.0285L8.9137 15.2781V17.4644L8.49973 17.542C6.404 17.8784 4.17891 17.762 1.97968 17.0116Z" fill="#F5C518"/>
</svg>
