<svg width="17" height="16" viewBox="0 0 17 16" fill="none" xmlns="http://www.w3.org/2000/svg">
<path d="M8.98526 14.9389L8.42105 15.4526L7.2 14.3411C2.86316 10.4084 0 7.80632 0 4.63158C0 2.02947 2.03789 0 4.63158 0C6.09684 0 7.50316 0.682105 8.42105 1.75158C9.33895 0.682105 10.7453 0 12.2105 0C14.8042 0 16.8421 2.02947 16.8421 4.63158C16.8421 5.83579 16.4211 6.95579 15.68 8.09263C15.1579 7.84 14.5768 7.67158 13.9705 7.61263C14.7368 6.56842 15.1579 5.6 15.1579 4.63158C15.1579 2.94737 13.8947 1.68421 12.2105 1.68421C10.9137 1.68421 9.65053 2.52632 9.20421 3.67158H7.63789C7.19158 2.52632 5.92842 1.68421 4.63158 1.68421C2.94737 1.68421 1.68421 2.94737 1.68421 4.63158C1.68421 7.06526 4.32842 9.46526 8.32842 13.0947L8.42105 13.1789L8.45474 13.1453C8.52211 13.7853 8.70737 14.3916 8.98526 14.9389ZM12.6316 9.26316V11.7895H10.1053V13.4737H12.6316V16H14.3158V13.4737H16.8421V11.7895H14.3158V9.26316H12.6316Z" fill="#EF5A5A"/>
</svg>
