<svg width="20" height="20" viewBox="0 0 20 20" fill="none" xmlns="http://www.w3.org/2000/svg">
<path d="M10 0C4.489 0 0 4.489 0 10C0 15.511 4.489 20 10 20C15.511 20 20 15.511 20 10C20 4.489 15.511 0 10 0ZM10 2C14.4301 2 18 5.56988 18 10C18 14.0145 15.0653 17.313 11.2188 17.8984V12.3848H13.5469L13.9121 10.0195H11.2188V8.72656C11.2188 7.74356 11.539 6.87109 12.459 6.87109H13.9355V4.80664C13.6755 4.77164 13.1268 4.69531 12.0898 4.69531C9.92384 4.69531 8.6543 5.83931 8.6543 8.44531V10.0195H6.42773V12.3848H8.6543V17.8789C4.87029 17.2408 2 13.9702 2 10C2 5.56988 5.56988 2 10 2Z" fill="#F5C518"/>
</svg>
