<svg width="18" height="19" viewBox="0 0 18 19" fill="none" xmlns="http://www.w3.org/2000/svg">
<path d="M3.62 8.14437C5.06 10.9744 7.38 13.2944 10.21 14.7344L12.41 12.5344C12.69 12.2544 13.08 12.1744 13.43 12.2844C14.55 12.6544 15.75 12.8544 17 12.8544C17.2652 12.8544 17.5196 12.9597 17.7071 13.1473C17.8946 13.3348 18 13.5892 18 13.8544V17.3544C18 17.6196 17.8946 17.8739 17.7071 18.0615C17.5196 18.249 17.2652 18.3544 17 18.3544C12.4913 18.3544 8.1673 16.5633 4.97918 13.3752C1.79107 10.1871 0 5.86305 0 1.35437C0 1.08915 0.105357 0.8348 0.292893 0.647263C0.48043 0.459727 0.734784 0.35437 1 0.35437H4.5C4.76522 0.35437 5.01957 0.459727 5.20711 0.647263C5.39464 0.8348 5.5 1.08915 5.5 1.35437C5.5 2.60437 5.7 3.80437 6.07 4.92437C6.18 5.27437 6.1 5.66437 5.82 5.94437L3.62 8.14437Z" fill="#F5C518"/>
</svg>
