<svg width="20" height="15" viewBox="0 0 20 15" fill="none" xmlns="http://www.w3.org/2000/svg">
<path d="M12 9.35437V11.3544H15V14.3544H17V11.3544H20V9.35437H17V6.35437H15V9.35437M11.97 5.96437C11.85 4.63437 10.59 3.32437 9 3.35437C7.3 3.38437 6 4.65437 6 6.35437C6 8.05437 7.3 9.29437 9 9.35437C9.38 9.35437 9.77 9.27437 10.14 9.12437C10.41 8.02437 10.86 6.98437 11.97 5.96437ZM10 10.3544H4C4 9.25437 3.11 8.35437 2 8.35437V4.35437C3.11 4.35437 4 3.46437 4 2.35437H14C14 3.46437 14.9 4.35437 16 4.35437V4.41437C16.67 4.41437 17.34 4.53437 18 4.75437V0.35437H0V12.3544H10.32C10.1 11.6844 10 11.0144 10 10.3544Z" fill="#F5C518"/>
</svg>
