<svg width="20" height="19" viewBox="0 0 20 19" fill="none" xmlns="http://www.w3.org/2000/svg">
<path d="M10.0001 0C4.00012 0 4.00012 6 4.00012 6V7C4.00012 7 3.97762 6.99805 3.93762 6.99805C3.59762 6.99805 2.00012 7.06853 2.00012 8.39453C2.00012 9.93953 3.69696 10 3.96496 10H4.00012C4.00012 11 2.34779 12.1704 1.26379 12.4414C0.253787 12.8334 0.0131153 13.5028 0.000115267 14.0098C-0.00788473 14.3128 0.0655839 14.5573 0.105584 14.6523C0.482584 15.5373 1.60233 15.9941 2.69933 15.9941C2.73733 17.4331 3.77582 18 4.47082 18C5.26482 18 6.10558 17.6113 6.10558 17.6113C6.14658 17.6453 7.42512 19 10.0001 19C12.5751 19 13.8546 17.6453 13.8966 17.6113C13.8966 17.6113 14.7344 18 15.5294 18C16.2244 18 17.2629 17.4331 17.3009 15.9941C18.3979 15.9941 19.5176 15.5373 19.8946 14.6523C19.9346 14.5573 20.0081 14.3128 20.0001 14.0098C19.9871 13.5028 19.7464 12.8334 18.7364 12.4414C17.6524 12.1704 16.0001 11 16.0001 10H16.0353C16.3033 10 18.0001 9.93953 18.0001 8.39453C18.0001 7.06853 16.4026 6.99805 16.0626 6.99805C16.0226 6.99805 16.0001 7 16.0001 7V6C16.0001 6 16.0001 0 10.0001 0ZM10.0001 2C13.6531 2 13.9851 5.073 14.0001 6V10C14.0001 11.864 15.7471 13.2971 17.2091 13.9941H15.3517L15.3009 15.9434C15.3009 15.9534 15.2989 15.9627 15.2989 15.9727C15.0969 15.9317 14.8645 15.8549 14.7345 15.7969L13.6056 15.2754L12.6368 16.0586L12.5568 16.125L12.4943 16.1836C12.4083 16.2666 11.5991 17 10.0001 17C8.40112 17 7.59102 16.2676 7.50402 16.1836L7.42785 16.1094L7.36144 16.0566L6.3966 15.293L5.27746 15.791C5.13946 15.853 4.90429 15.9317 4.70129 15.9727C4.70029 15.9637 4.69933 15.9534 4.69933 15.9434L4.64855 13.9961H2.79113C4.25313 13.2981 6.00012 11.864 6.00012 10V6C6.00012 5.332 6.19312 2 10.0001 2Z" fill="#F5C518"/>
</svg>
