<svg width="16" height="17" viewBox="0 0 16 17" fill="none" xmlns="http://www.w3.org/2000/svg">
<path d="M8 0.35437C9.06087 0.35437 10.0783 0.775797 10.8284 1.52594C11.5786 2.27609 12 3.2935 12 4.35437C12 5.41524 11.5786 6.43265 10.8284 7.1828C10.0783 7.93294 9.06087 8.35437 8 8.35437C6.93913 8.35437 5.92172 7.93294 5.17157 7.1828C4.42143 6.43265 4 5.41524 4 4.35437C4 3.2935 4.42143 2.27609 5.17157 1.52594C5.92172 0.775797 6.93913 0.35437 8 0.35437ZM8 10.3544C12.42 10.3544 16 12.1444 16 14.3544V16.3544H0V14.3544C0 12.1444 3.58 10.3544 8 10.3544Z" fill="#F5C518"/>
</svg>
