<svg width="20" height="19" viewBox="0 0 20 19" fill="none" xmlns="http://www.w3.org/2000/svg">
<path d="M10.67 17.74L10 18.35L8.55 17.03C3.4 12.36 0 9.27 0 5.5C0 2.41 2.42 0 5.5 0C7.24 0 8.91 0.81 10 2.08C11.09 0.81 12.76 0 14.5 0C17.58 0 20 2.41 20 5.5C20 6.93 19.5 8.26 18.62 9.61C18 9.31 17.31 9.11 16.59 9.04C17.5 7.8 18 6.65 18 5.5C18 3.5 16.5 2 14.5 2C12.96 2 11.46 3 10.93 4.36H9.07C8.54 3 7.04 2 5.5 2C3.5 2 2 3.5 2 5.5C2 8.39 5.14 11.24 9.89 15.55L10 15.65L10.04 15.61C10.12 16.37 10.34 17.09 10.67 17.74ZM12 14V16H20V14H12Z" fill="#EF5A5A"/>
</svg>
