<svg width="20" height="16" viewBox="0 0 20 16" fill="none" xmlns="http://www.w3.org/2000/svg">
<path d="M10 0C10 0 3.74555 -3.1352e-05 2.18555 0.417969C1.32455 0.647969 0.647969 1.32555 0.417969 2.18555C-3.1352e-05 3.74555 0 8 0 8C0 8 -3.1352e-05 12.2545 0.417969 13.8145C0.647969 14.6755 1.32555 15.352 2.18555 15.582C3.74555 16 10 16 10 16C10 16 16.2545 16 17.8145 15.582C18.6745 15.352 19.352 14.6745 19.582 13.8145C20 12.2545 20 8 20 8C20 8 20 3.74555 19.582 2.18555C19.352 1.32555 18.6745 0.647969 17.8145 0.417969C16.2545 -3.1352e-05 10 0 10 0ZM10 2C12.882 2 16.4909 2.13361 17.2969 2.34961C17.4659 2.39461 17.6044 2.53312 17.6504 2.70312C17.8914 3.60113 18 6.342 18 8C18 9.658 17.8914 12.3979 17.6504 13.2969C17.6054 13.4659 17.4669 13.6044 17.2969 13.6504C16.4919 13.8664 12.882 14 10 14C7.119 14 3.51012 13.8664 2.70312 13.6504C2.53413 13.6054 2.39561 13.4669 2.34961 13.2969C2.10861 12.3989 2 9.658 2 8C2 6.342 2.10861 3.60117 2.34961 2.70117C2.39461 2.53317 2.53312 2.39461 2.70312 2.34961C3.50813 2.13361 7.118 2 10 2ZM8 4.53516V11.4648L14 8L8 4.53516Z" fill="#F5C518"/>
</svg>
