<svg width="109" height="40" viewBox="0 0 109 40" fill="none" xmlns="http://www.w3.org/2000/svg">
<rect x="0.5" y="0.5" width="108" height="39" rx="5.5" fill="black" fill-opacity="0.6" stroke="#F5C518"/>
<rect x="8.04053" y="10.5" width="24" height="3" fill="#F5C518"/>
<rect x="8.04053" y="17.5" width="24" height="3" fill="#F5C518"/>
<rect x="8.04053" y="24.5" width="24" height="3" fill="#F5C518"/>
<path d="M42.8552 11.2436H46.5698L51.5443 23.3855H51.7407L56.7152 11.2436H60.4298V28H57.517V16.4882H57.3616L52.7307 27.9509H50.5543L45.9234 16.4636H45.768V28H42.8552V11.2436ZM69.168 28.2455C67.908 28.2455 66.8198 27.9836 65.9034 27.46C64.9925 26.9309 64.2916 26.1836 63.8007 25.2182C63.3098 24.2473 63.0643 23.1045 63.0643 21.79C63.0643 20.4973 63.3098 19.3627 63.8007 18.3864C64.297 17.4045 64.9898 16.6409 65.8789 16.0955C66.768 15.5445 67.8125 15.2691 69.0125 15.2691C69.787 15.2691 70.518 15.3945 71.2052 15.6455C71.898 15.8909 72.5089 16.2727 73.038 16.7909C73.5725 17.3091 73.9925 17.9691 74.298 18.7709C74.6034 19.5673 74.7561 20.5164 74.7561 21.6182V22.5264H64.4552V20.53H71.917C71.9116 19.9627 71.7889 19.4582 71.5489 19.0164C71.3089 18.5691 70.9734 18.2173 70.5425 17.9609C70.117 17.7045 69.6207 17.5764 69.0534 17.5764C68.448 17.5764 67.9161 17.7236 67.458 18.0182C66.9998 18.3073 66.6425 18.6891 66.3861 19.1636C66.1352 19.6327 66.007 20.1482 66.0016 20.71V22.4527C66.0016 23.1836 66.1352 23.8109 66.4025 24.3345C66.6698 24.8527 67.0434 25.2509 67.5234 25.5291C68.0034 25.8018 68.5652 25.9382 69.2089 25.9382C69.6398 25.9382 70.0298 25.8782 70.3789 25.7582C70.728 25.6327 71.0307 25.45 71.287 25.21C71.5434 24.97 71.737 24.6727 71.868 24.3182L74.6334 24.6291C74.4589 25.36 74.1261 25.9982 73.6352 26.5436C73.1498 27.0836 72.528 27.5036 71.7698 27.8036C71.0116 28.0982 70.1443 28.2455 69.168 28.2455ZM80.2236 20.6364V28H77.2618V15.4327H80.0927V17.5682H80.24C80.5291 16.8645 80.99 16.3055 81.6227 15.8909C82.2609 15.4764 83.0491 15.2691 83.9873 15.2691C84.8545 15.2691 85.61 15.4545 86.2536 15.8255C86.9027 16.1964 87.4045 16.7336 87.7591 17.4373C88.1191 18.1409 88.2964 18.9945 88.2909 19.9982V28H85.3291V20.4564C85.3291 19.6164 85.1109 18.9591 84.6745 18.4845C84.2436 18.01 83.6464 17.7727 82.8827 17.7727C82.3645 17.7727 81.9036 17.8873 81.5 18.1164C81.1018 18.34 80.7882 18.6645 80.5591 19.09C80.3355 19.5155 80.2236 20.0309 80.2236 20.6364ZM99.3118 22.7145V15.4327H102.274V28H99.4018V25.7664H99.2709C98.9873 26.47 98.5209 27.0455 97.8718 27.4927C97.2282 27.94 96.4345 28.1636 95.4909 28.1636C94.6673 28.1636 93.9391 27.9809 93.3064 27.6155C92.6791 27.2445 92.1882 26.7073 91.8336 26.0036C91.4791 25.2945 91.3018 24.4382 91.3018 23.4345V15.4327H94.2636V22.9764C94.2636 23.7727 94.4818 24.4055 94.9182 24.8745C95.3545 25.3436 95.9273 25.5782 96.6364 25.5782C97.0727 25.5782 97.4955 25.4718 97.9045 25.2591C98.3136 25.0464 98.6491 24.73 98.9109 24.31C99.1782 23.8845 99.3118 23.3527 99.3118 22.7145Z" fill="white"/>
</svg>
